<?xml version="1.0" encoding="utf-8"?>
<!-- Generator: Adobe Illustrator 16.0.0, SVG Export Plug-In . SVG Version: 6.00 Build 0)  -->
<!DOCTYPE svg PUBLIC "-//W3C//DTD SVG 1.1//EN" "http://www.w3.org/Graphics/SVG/1.1/DTD/svg11.dtd">
<svg version="1.1" id="Layer_1" xmlns="http://www.w3.org/2000/svg" xmlns:xlink="http://www.w3.org/1999/xlink" x="0px" y="0px"
	 width="24px" height="24px" viewBox="0 0 24 24" enable-background="new 0 0 24 24" xml:space="preserve">
<g opacity="0.7" enable-background="new    ">
</g>
<g>
	<defs>
		<rect id="SVGID_1_" x="0.539" y="0.538" width="22.924" height="22.924"/>
	</defs>
	<clipPath id="SVGID_2_">
		<use xlink:href="#SVGID_1_"  overflow="visible"/>
	</clipPath>
	<path clip-path="url(#SVGID_2_)" fill="#3896D0" d="M23.463,12.001c0,6.33-5.13,11.461-11.462,11.461
		c-6.33,0-11.462-5.131-11.462-11.461C0.538,5.67,5.67,0.539,12,0.539C18.333,0.539,23.463,5.67,23.463,12.001"/>
</g>
<g>
	<defs>
		<rect id="SVGID_3_" x="0.539" y="0.538" width="22.924" height="22.924"/>
	</defs>
	<clipPath id="SVGID_4_">
		<use xlink:href="#SVGID_3_"  overflow="visible"/>
	</clipPath>
	<path clip-path="url(#SVGID_4_)" fill="#3896D0" d="M21.076,12.001c0,5.011-4.064,9.074-9.076,9.074
		c-5.011,0-9.073-4.063-9.073-9.074S6.989,2.927,12,2.927C17.012,2.927,21.076,6.99,21.076,12.001"/>
</g>
<g>
	<defs>
		<rect id="SVGID_5_" x="0.539" y="0.538" width="22.924" height="22.924"/>
	</defs>
	<clipPath id="SVGID_6_">
		<use xlink:href="#SVGID_5_"  overflow="visible"/>
	</clipPath>
	<g opacity="0.2" clip-path="url(#SVGID_6_)" enable-background="new    ">
		<g>
			<defs>
				<rect id="SVGID_7_" x="1.935" y="1.929" width="20.175" height="20.174"/>
			</defs>
			<clipPath id="SVGID_8_">
				<use xlink:href="#SVGID_7_"  overflow="visible"/>
			</clipPath>
			<g clip-path="url(#SVGID_8_)">
				<defs>
					<rect id="SVGID_9_" x="1.971" y="1.971" width="20.06" height="20.06"/>
				</defs>
				<clipPath id="SVGID_10_">
					<use xlink:href="#SVGID_9_"  overflow="visible"/>
				</clipPath>
				<path clip-path="url(#SVGID_10_)" d="M12,1.972c-5.54,0-10.03,4.49-10.03,10.029c0,5.538,4.49,10.03,10.03,10.03
					c5.542,0,10.031-4.492,10.031-10.03C22.031,6.462,17.542,1.972,12,1.972 M12,21.118c-5.036,0-9.116-4.081-9.116-9.117
					c0-5.035,4.08-9.118,9.116-9.118c5.036,0,9.117,4.083,9.117,9.118C21.117,17.037,17.036,21.118,12,21.118"/>
			</g>
		</g>
	</g>
</g>
<path fill="#FFFFFF" d="M10.567,5.51c0,0,1.521,0.799,1.454,2.355c0,0.605-0.521,1.042-0.521,2.01
	c-0.056,0.539,0.336,1.021,0.875,1.076c0.063,0.007,0.128,0.007,0.191,0.002c0.654-0.052,1.148-0.616,1.114-1.272
	C13.656,9.08,13.445,8.5,13.075,8.023c1.666,1.258,2.671,3.205,2.73,5.292c0,3.397-2.423,4.238-3.784,4.238
	c-2.187-0.073-3.898-1.904-3.824-4.091c0-0.029,0.001-0.058,0.003-0.087c0-3.088,2.616-3.99,2.616-6.079
	C10.797,6.694,10.713,6.095,10.567,5.51z"/>
</svg>
