<svg xmlns="http://www.w3.org/2000/svg" xmlns:xlink="http://www.w3.org/1999/xlink" viewBox="0 0 30 30"><defs><style>.a{opacity:0.7;}.b{fill:#1d262c;}.c{fill:url(#a);}.d{fill:url(#b);}.e{fill:url(#c);}.f{opacity:0.5;}.g{fill:none;stroke:#3896d0;stroke-linecap:round;stroke-miterlimit:10;stroke-width:2px;}</style><linearGradient id="a" x1="15" y1="28.26" x2="15" y2="15.18" gradientUnits="userSpaceOnUse"><stop offset="0" stop-color="#fff" stop-opacity="0.3"/><stop offset="1" stop-color="#fff" stop-opacity="0"/></linearGradient><linearGradient id="b" x1="15" y1="2.56" x2="15" y2="13.82" gradientUnits="userSpaceOnUse"><stop offset="0" stop-opacity="0.4"/><stop offset="1" stop-opacity="0"/></linearGradient><linearGradient id="c" x1="15" y1="5.88" x2="15" y2="10.76" gradientUnits="userSpaceOnUse"><stop offset="0" stop-color="#fff" stop-opacity="0.2"/><stop offset="1" stop-color="#fff" stop-opacity="0"/></linearGradient></defs><title>@2x-close_button</title><g class="a"><circle class="b" cx="15" cy="15" r="15"/><circle class="c" cx="15" cy="15" r="15"/><circle class="d" cx="15" cy="15" r="15"/><circle class="b" cx="15" cy="15" r="11.88"/><circle class="e" cx="15" cy="15" r="11.88"/><path class="f" d="M15,1.88A13.12,13.12,0,1,0,28.12,15,13.13,13.13,0,0,0,15,1.88Zm0,25.05A11.93,11.93,0,1,1,26.93,15,11.93,11.93,0,0,1,15,26.93Z"/></g><line class="g" x1="10.24" y1="10.44" x2="19.55" y2="19.75"/><line class="g" x1="19.55" y1="10.44" x2="10.24" y2="19.75"/></svg>