<svg xmlns="http://www.w3.org/2000/svg" viewBox="0 0 25.42 24.51"><defs><style>.a{opacity:0.5;}.b{fill:#fff;}</style></defs><title>@2x-magnifier</title><g class="a"><path class="b" d="M9.06,16.08a9.52,9.52,0,1,1,13.45.49A9.54,9.54,0,0,1,9.06,16.08ZM21.15,4.86a7,7,0,1,0-.37,9.85A7,7,0,0,0,21.15,4.86Z" transform="translate(-0.13 -0.08)"/><path class="b" d="M0.62,24a1.82,1.82,0,0,1,.1-2.57l8.09-7.52c0.74-.69,1.09.1,1.77,0.84s1.45,1.14.71,1.82L3.19,24.11A1.82,1.82,0,0,1,.62,24Z" transform="translate(-0.13 -0.08)"/></g></svg>