<svg xmlns="http://www.w3.org/2000/svg" xmlns:xlink="http://www.w3.org/1999/xlink" viewBox="0 0 14.82 15.09"><defs><style>.a{opacity:0.7;}.b{fill:#1d262c;}.c{fill:url(#a);}.d{fill:url(#b);}.e{fill:url(#c);}.f{opacity:0.5;}.g{font-size:11.11px;fill:#3896d0;stroke:#3896d0;stroke-miterlimit:10;stroke-width:0.25px;font-family:Futura;}</style><linearGradient id="a" x1="7.41" y1="13.96" x2="7.41" y2="7.5" gradientUnits="userSpaceOnUse"><stop offset="0" stop-color="#fff" stop-opacity="0.3"/><stop offset="1" stop-color="#fff" stop-opacity="0"/></linearGradient><linearGradient id="b" x1="7.41" y1="1.26" x2="7.41" y2="6.83" gradientUnits="userSpaceOnUse"><stop offset="0" stop-opacity="0.4"/><stop offset="1" stop-opacity="0"/></linearGradient><linearGradient id="c" x1="7.41" y1="2.9" x2="7.41" y2="5.31" gradientUnits="userSpaceOnUse"><stop offset="0" stop-color="#fff" stop-opacity="0.2"/><stop offset="1" stop-color="#fff" stop-opacity="0"/></linearGradient></defs><title>@2x-infobr</title><g class="a"><circle class="b" cx="7.41" cy="7.41" r="7.41"/><circle class="c" cx="7.41" cy="7.41" r="7.41"/><circle class="d" cx="7.41" cy="7.41" r="7.41"/><circle class="b" cx="7.41" cy="7.41" r="5.86"/><circle class="e" cx="7.41" cy="7.41" r="5.86"/><path class="f" d="M7.5,1A6.48,6.48,0,1,0,14,7.5,6.48,6.48,0,0,0,7.5,1Zm0,12.38A5.89,5.89,0,1,1,13.39,7.5,5.89,5.89,0,0,1,7.5,13.39Z" transform="translate(-0.09 -0.09)"/></g><text class="g" transform="translate(6.02 11.75)">i</text></svg>