<svg xmlns="http://www.w3.org/2000/svg" viewBox="0 0 24.87 24.88"><defs><style>.a{fill:#3896d0;}.b{fill:#fff;}</style></defs><title>@2x-twitter</title><circle class="a" cx="12.44" cy="12.44" r="12.44"/><path class="b" d="M19.07,8.83a4.66,4.66,0,0,1-1.4.38,2.44,2.44,0,0,0,1.07-1.33,5.14,5.14,0,0,1-1.55.59,2.39,2.39,0,0,0-1.77-.77A2.42,2.42,0,0,0,13,10.12a3.11,3.11,0,0,0,.05.55,6.89,6.89,0,0,1-5-2.54,2.44,2.44,0,0,0,.75,3.24,2.3,2.3,0,0,1-1.1-.3v0a2.42,2.42,0,0,0,1.94,2.38,2.26,2.26,0,0,1-.64.09,2.8,2.8,0,0,1-.46,0,2.44,2.44,0,0,0,2.27,1.68,4.87,4.87,0,0,1-3,1,5.11,5.11,0,0,1-.58,0A6.9,6.9,0,0,0,17.86,10.4c0-.11,0-0.21,0-0.32A5.06,5.06,0,0,0,19.07,8.83Z" transform="translate(-0.06 -0.06)"/></svg>