<svg xmlns="http://www.w3.org/2000/svg" viewBox="0 0 15.03 15.03"><defs><style>.a{fill:#fff;opacity:0.7;}</style></defs><title>@2x-edit</title><path class="a" d="M15,8.93V6.07H12.88a5.58,5.58,0,0,0-.57-1.38l1.5-1.5-2-2-1.5,1.5A5.52,5.52,0,0,0,8.92,2.1V0H6.06V2.1a5.55,5.55,0,0,0-1.37.57l-1.5-1.5-2,2,1.5,1.5a5.53,5.53,0,0,0-.57,1.38H0V8.93H2.09a5.51,5.51,0,0,0,.57,1.38l-1.5,1.5,2,2,1.5-1.5a5.54,5.54,0,0,0,1.37.57V15H8.92V12.9a5.5,5.5,0,0,0,1.38-.57l1.5,1.5,2-2-1.5-1.5a5.52,5.52,0,0,0,.57-1.37H15ZM7.49,10.66A3.16,3.16,0,1,1,10.65,7.5,3.16,3.16,0,0,1,7.49,10.66Z" transform="translate(0.03 0.02)"/></svg>