<svg xmlns="http://www.w3.org/2000/svg" xmlns:xlink="http://www.w3.org/1999/xlink" viewBox="0 0 25 25"><defs><style>.a{opacity:0.7;}.b{fill:#3896d0;}.c{fill:url(#a);}.d{fill:url(#b);}.e{fill:url(#c);}.f{opacity:0.2;}.g{fill:#fff;}</style><linearGradient id="a" x1="12.5" y1="23.55" x2="12.5" y2="12.65" gradientUnits="userSpaceOnUse"><stop offset="0" stop-color="#fff" stop-opacity="0.3"/><stop offset="1" stop-color="#fff" stop-opacity="0"/></linearGradient><linearGradient id="b" x1="12.5" y1="2.13" x2="12.5" y2="11.52" gradientUnits="userSpaceOnUse"><stop offset="0" stop-opacity="0.4"/><stop offset="1" stop-opacity="0"/></linearGradient><linearGradient id="c" x1="12.5" y1="4.89" x2="12.5" y2="8.96" gradientUnits="userSpaceOnUse"><stop offset="0" stop-color="#fff" stop-opacity="0.2"/><stop offset="1" stop-color="#fff" stop-opacity="0"/></linearGradient></defs><title>@2x-listicon</title><g class="a"><circle class="b" cx="12.5" cy="12.5" r="12.5"/><circle class="c" cx="12.5" cy="12.5" r="12.5"/><circle class="d" cx="12.5" cy="12.5" r="12.5"/><circle class="b" cx="12.5" cy="12.5" r="9.9"/><circle class="e" cx="12.5" cy="12.5" r="9.9"/><path class="f" d="M12.5,1.56A10.94,10.94,0,1,0,23.44,12.5,10.94,10.94,0,0,0,12.5,1.56Zm0,20.88a9.94,9.94,0,1,1,9.94-9.94A9.94,9.94,0,0,1,12.5,22.44Z"/></g><g class="a"><path class="g" d="M16.5,7.47h-8a1,1,0,0,0,0,2h8A1,1,0,0,0,16.5,7.47Z"/><path class="g" d="M16.5,11.5h-8a1,1,0,0,0,0,2h8A1,1,0,0,0,16.5,11.5Z"/><path class="g" d="M16.5,15.53h-8a1,1,0,0,0,0,2h8A1,1,0,0,0,16.5,15.53Z"/></g></svg>