<?xml version="1.0" encoding="utf-8"?>
<!-- Generator: Adobe Illustrator 16.0.0, SVG Export Plug-In . SVG Version: 6.00 Build 0)  -->
<!DOCTYPE svg PUBLIC "-//W3C//DTD SVG 1.1//EN" "http://www.w3.org/Graphics/SVG/1.1/DTD/svg11.dtd">
<svg version="1.1" id="Layer_1" xmlns="http://www.w3.org/2000/svg" xmlns:xlink="http://www.w3.org/1999/xlink" x="0px" y="0px"
	 width="300px" height="300px" viewBox="0 0 300 300" enable-background="new 0 0 300 300" xml:space="preserve">
<title>@2x-hype_white</title>
<path fill="#FF6000" d="M114.329,0c0,0,37.859,19.91,36.199,58.673c0,15.083-12.971,25.942-12.971,50.075
	c-1.39,13.423,8.365,25.431,21.788,26.821c1.581,0.164,3.175,0.173,4.758,0.027c16.31-1.286,28.621-15.337,27.753-31.674
	c-0.59-15.013-5.863-29.464-15.083-41.327c41.507,31.34,66.532,79.836,68.024,131.826c0,84.615-60.332,105.58-94.27,105.58
	c-54.447-1.832-97.102-47.455-95.27-101.903c0.024-0.724,0.056-1.446,0.097-2.169c0-76.923,65.158-99.397,65.158-151.433
	C120.028,29.486,117.955,14.572,114.329,0z"/>
</svg>
