<?xml version="1.0" encoding="utf-8"?>
<!-- Generator: Adobe Illustrator 19.2.1, SVG Export Plug-In . SVG Version: 6.00 Build 0)  -->
<svg version="1.1" id="Layer_1" xmlns="http://www.w3.org/2000/svg" xmlns:xlink="http://www.w3.org/1999/xlink" x="0px" y="0px"
	 viewBox="0 0 100 100" style="enable-background:new 0 0 100 100;" xml:space="preserve">
<style type="text/css">
	.st0{fill:url(#SVGID_1_);}
	.st1{fill:url(#SVGID_2_);}
	.st2{fill:url(#SVGID_3_);}
	.st3{fill:url(#SVGID_4_);}
	.st4{fill:url(#SVGID_5_);}
	.st5{fill:url(#SVGID_6_);}
	.st6{fill:url(#SVGID_7_);}
	.st7{fill:url(#SVGID_8_);}
	.st8{fill:url(#SVGID_9_);}
	.st9{fill:url(#SVGID_10_);}
	.st10{fill:url(#SVGID_11_);}
	.st11{fill:url(#SVGID_12_);}
	.st12{fill:url(#SVGID_13_);}
	.st13{fill:url(#SVGID_14_);}
	.st14{fill:url(#SVGID_15_);}
	.st15{fill:url(#SVGID_16_);}
	.st16{fill:url(#SVGID_17_);}
	.st17{fill:url(#SVGID_18_);}
	.st18{fill:url(#SVGID_19_);}
	.st19{fill:url(#SVGID_20_);}
	.st20{fill:url(#SVGID_21_);}
	.st21{fill:url(#SVGID_22_);}
	.st22{fill:url(#SVGID_23_);}
	.st23{fill:url(#SVGID_24_);}
	.st24{fill:url(#SVGID_25_);}
	.st25{fill:url(#SVGID_26_);}
	.st26{fill:url(#SVGID_27_);}
	.st27{fill:url(#SVGID_28_);}
	.st28{fill:url(#SVGID_29_);}
	.st29{fill:url(#SVGID_30_);}
	.st30{fill:url(#SVGID_31_);}
	.st31{fill:url(#SVGID_32_);}
	.st32{fill:url(#SVGID_33_);}
	.st33{fill:url(#SVGID_34_);}
	.st34{fill:url(#SVGID_35_);}
	.st35{fill:url(#SVGID_36_);}
	.st36{fill:url(#SVGID_37_);}
	.st37{fill:url(#SVGID_38_);}
	.st38{fill:url(#SVGID_39_);}
	.st39{fill:url(#SVGID_40_);}
	.st40{fill:url(#SVGID_41_);}
	.st41{fill:url(#SVGID_42_);}
	.st42{fill:url(#SVGID_43_);}
	.st43{fill:url(#SVGID_44_);}
	.st44{fill:url(#SVGID_45_);}
	.st45{fill:url(#SVGID_46_);}
	.st46{fill:url(#SVGID_47_);}
	.st47{fill:url(#SVGID_48_);}
	.st48{fill:url(#SVGID_49_);}
	.st49{fill:url(#SVGID_50_);}
	.st50{fill:url(#SVGID_51_);}
	.st51{fill:url(#SVGID_52_);}
	.st52{fill:url(#SVGID_53_);}
	.st53{fill:url(#SVGID_54_);}
	.st54{fill:url(#SVGID_55_);}
	.st55{fill:url(#SVGID_56_);}
	.st56{fill:url(#SVGID_57_);}
	.st57{fill:url(#SVGID_58_);}
	.st58{fill:url(#SVGID_59_);}
	.st59{fill:url(#SVGID_60_);}
	.st60{fill:url(#SVGID_61_);}
	.st61{fill:url(#SVGID_62_);}
	.st62{fill:url(#SVGID_63_);}
	.st63{fill:url(#SVGID_64_);}
	.st64{fill:url(#SVGID_65_);}
	.st65{fill:url(#SVGID_66_);}
	.st66{fill:url(#SVGID_67_);}
	.st67{fill:url(#SVGID_68_);}
	.st68{fill:url(#SVGID_69_);}
	.st69{fill:url(#SVGID_70_);}
	.st70{fill:url(#SVGID_71_);}
	.st71{fill:url(#SVGID_72_);}
	.st72{fill:url(#SVGID_73_);}
	.st73{fill:url(#SVGID_74_);}
	.st74{fill:url(#SVGID_75_);}
	.st75{fill:url(#SVGID_76_);}
	.st76{fill:url(#SVGID_77_);}
	.st77{fill:url(#SVGID_78_);}
	.st78{fill:url(#SVGID_79_);}
</style>
<radialGradient id="SVGID_1_" cx="50.001" cy="50.001" r="49.999" gradientUnits="userSpaceOnUse">
	<stop  offset="0" style="stop-color:#8AD6F7"/>
	<stop  offset="1" style="stop-color:#1D8CAE"/>
</radialGradient>
<circle class="st0" cx="50" cy="50" r="50"/>
<radialGradient id="SVGID_2_" cx="50.001" cy="50.001" r="45.0797" gradientUnits="userSpaceOnUse">
	<stop  offset="0" style="stop-color:#6CB5D3"/>
	<stop  offset="3.513701e-02" style="stop-color:#00A8D9"/>
	<stop  offset="1" style="stop-color:#65B3D3"/>
</radialGradient>
<polygon class="st1" points="50,4.9 54.1,8.3 58.8,5.8 62.2,9.9 67.3,8.4 69.7,13.1 75,12.5 76.6,17.6 81.9,18.1 82.4,23.4 87.5,25 
	86.9,30.3 91.6,32.7 90.1,37.8 94.2,41.2 91.7,45.9 95.1,50 91.7,54.1 94.2,58.8 90.1,62.2 91.6,67.3 86.9,69.7 87.5,75 82.4,76.6 
	81.9,81.9 76.6,82.4 75,87.5 69.7,86.9 67.3,91.6 62.2,90.1 58.8,94.2 54.1,91.7 50,95.1 45.9,91.7 41.2,94.2 37.8,90.1 32.7,91.6 
	30.3,86.9 25,87.5 23.4,82.4 18.1,81.9 17.6,76.6 12.5,75 13.1,69.7 8.4,67.3 9.9,62.2 5.8,58.8 8.3,54.1 4.9,50 8.3,45.9 5.8,41.2 
	9.9,37.8 8.4,32.7 13.1,30.3 12.5,25 17.6,23.4 18.1,18.1 23.4,17.6 25,12.5 30.3,13.1 32.7,8.4 37.8,9.9 41.2,5.8 45.9,8.3 "/>
<g>
	<g>
		<linearGradient id="SVGID_3_" gradientUnits="userSpaceOnUse" x1="44.9702" y1="82.6786" x2="44.9702" y2="77.8859">
			<stop  offset="0" style="stop-color:#3CAED5"/>
			<stop  offset="1" style="stop-color:#FFFFFF"/>
		</linearGradient>
		<path class="st2" d="M43,77.9c-0.3,0.9,0.2,3,1.1,4.2s2.1,0.2,2.1,0.2s1.3-0.9,0.4-2.1C45.8,79,44,77.9,43,77.9z"/>
		<linearGradient id="SVGID_4_" gradientUnits="userSpaceOnUse" x1="43.9737" y1="87.2763" x2="43.9737" y2="83.2277">
			<stop  offset="0" style="stop-color:#3CAED5"/>
			<stop  offset="1" style="stop-color:#FFFFFF"/>
		</linearGradient>
		<path class="st3" d="M41.6,87.2c0-1,1.1-2.8,2.3-3.6S46,84,46,84s1,1.2-0.2,2.1C44.5,87,42.5,87.5,41.6,87.2z"/>
	</g>
	<g>
		<linearGradient id="SVGID_5_" gradientUnits="userSpaceOnUse" x1="40.3983" y1="81.6127" x2="40.3983" y2="76.526">
			<stop  offset="0" style="stop-color:#3CAED5"/>
			<stop  offset="1" style="stop-color:#FFFFFF"/>
		</linearGradient>
		<path class="st4" d="M38.8,76.5c-0.5,0.8-0.3,3,0.4,4.3c0.7,1.3,2.1,0.5,2.1,0.5s1.4-0.7,0.8-2S39.8,76.7,38.8,76.5z"/>
		<linearGradient id="SVGID_6_" gradientUnits="userSpaceOnUse" x1="38.4618" y1="85.728" x2="38.4618" y2="82.0533">
			<stop  offset="0" style="stop-color:#3CAED5"/>
			<stop  offset="1" style="stop-color:#FFFFFF"/>
		</linearGradient>
		<path class="st5" d="M35.9,85.5c0.1-1,1.5-2.6,2.9-3.2c1.3-0.7,2,0.8,2,0.8s0.8,1.4-0.5,2.1C38.9,85.7,36.8,85.9,35.9,85.5z"/>
	</g>
	<g>
		<linearGradient id="SVGID_7_" gradientUnits="userSpaceOnUse" x1="35.9961" y1="79.8184" x2="35.9961" y2="74.5247">
			<stop  offset="0" style="stop-color:#3CAED5"/>
			<stop  offset="1" style="stop-color:#FFFFFF"/>
		</linearGradient>
		<path class="st6" d="M34.8,74.5c-0.6,0.8-0.7,2.9-0.2,4.3c0.5,1.4,1.9,0.9,1.9,0.9s1.5-0.4,1.1-1.8C37.1,76.4,35.8,74.8,34.8,74.5
			z"/>
		<linearGradient id="SVGID_8_" gradientUnits="userSpaceOnUse" x1="33.2386" y1="83.4533" x2="33.2386" y2="80.0743">
			<stop  offset="0" style="stop-color:#3CAED5"/>
			<stop  offset="1" style="stop-color:#FFFFFF"/>
		</linearGradient>
		<path class="st7" d="M30.6,82.9c0.3-0.9,1.9-2.3,3.3-2.8s1.8,1.1,1.8,1.1s0.6,1.5-0.9,1.9C33.5,83.6,31.4,83.5,30.6,82.9z"/>
	</g>
	<g>
		<linearGradient id="SVGID_9_" gradientUnits="userSpaceOnUse" x1="31.8524" y1="77.3464" x2="31.8524" y2="71.9311">
			<stop  offset="0" style="stop-color:#3CAED5"/>
			<stop  offset="1" style="stop-color:#FFFFFF"/>
		</linearGradient>
		<path class="st8" d="M31.2,71.9c-0.7,0.7-1.2,2.7-0.9,4.2c0.2,1.5,1.8,1.2,1.8,1.2s1.6-0.2,1.3-1.7C33.2,74.2,32.1,72.3,31.2,71.9
			z"/>
		<linearGradient id="SVGID_10_" gradientUnits="userSpaceOnUse" x1="28.4349" y1="80.5471" x2="28.4349" y2="77.3352">
			<stop  offset="0" style="stop-color:#3CAED5"/>
			<stop  offset="1" style="stop-color:#FFFFFF"/>
		</linearGradient>
		<path class="st9" d="M25.7,79.6c0.4-0.9,2.2-2,3.7-2.2c1.5-0.2,1.7,1.3,1.7,1.3s0.3,1.5-1.2,1.8S26.4,80.3,25.7,79.6z"/>
	</g>
	<g>
		<linearGradient id="SVGID_11_" gradientUnits="userSpaceOnUse" x1="28.0822" y1="74.2633" x2="28.0822" y2="68.8079">
			<stop  offset="0" style="stop-color:#3CAED5"/>
			<stop  offset="1" style="stop-color:#FFFFFF"/>
		</linearGradient>
		<path class="st10" d="M28.1,68.8c-0.8,0.5-1.6,2.5-1.6,4s1.6,1.4,1.6,1.4s1.6,0.1,1.6-1.4C29.7,71.3,28.9,69.3,28.1,68.8z"/>
		<linearGradient id="SVGID_12_" gradientUnits="userSpaceOnUse" x1="24.1704" y1="77.0583" x2="24.1704" y2="73.8957">
			<stop  offset="0" style="stop-color:#3CAED5"/>
			<stop  offset="1" style="stop-color:#FFFFFF"/>
		</linearGradient>
		<path class="st11" d="M21.4,75.5c0.5-0.8,2.5-1.6,4-1.6s1.4,1.6,1.4,1.6s0.1,1.6-1.4,1.6C24,77.1,22,76.3,21.4,75.5z"/>
	</g>
	<g>
		<linearGradient id="SVGID_13_" gradientUnits="userSpaceOnUse" x1="24.8319" y1="70.6521" x2="24.8319" y2="65.2312">
			<stop  offset="0" style="stop-color:#3CAED5"/>
			<stop  offset="1" style="stop-color:#FFFFFF"/>
		</linearGradient>
		<path class="st12" d="M25.4,65.2c-0.9,0.4-1.9,2.3-2.2,3.7c-0.2,1.5,1.3,1.6,1.3,1.6s1.6,0.3,1.8-1.2C26.6,68,26.1,65.9,25.4,65.2
			z"/>
		<linearGradient id="SVGID_14_" gradientUnits="userSpaceOnUse" x1="20.5528" y1="73.0027" x2="20.5528" y2="69.7979">
			<stop  offset="0" style="stop-color:#3CAED5"/>
			<stop  offset="1" style="stop-color:#FFFFFF"/>
		</linearGradient>
		<path class="st13" d="M17.8,70.8c0.7-0.7,2.7-1.2,4.2-1c1.5,0.2,1.2,1.8,1.2,1.8s-0.2,1.6-1.6,1.3C20.1,72.8,18.3,71.7,17.8,70.8z
			"/>
	</g>
	<g>
		<linearGradient id="SVGID_15_" gradientUnits="userSpaceOnUse" x1="22.2394" y1="66.5928" x2="22.2394" y2="61.2875">
			<stop  offset="0" style="stop-color:#3CAED5"/>
			<stop  offset="1" style="stop-color:#FFFFFF"/>
		</linearGradient>
		<path class="st14" d="M23.4,61.3c-0.9,0.3-2.3,1.9-2.7,3.4c-0.5,1.4,1.1,1.8,1.1,1.8s1.5,0.6,1.9-0.9C24.1,64.2,24,62,23.4,61.3z"
			/>
		<linearGradient id="SVGID_16_" gradientUnits="userSpaceOnUse" x1="17.6661" y1="68.4322" x2="17.6661" y2="65.0699">
			<stop  offset="0" style="stop-color:#3CAED5"/>
			<stop  offset="1" style="stop-color:#FFFFFF"/>
		</linearGradient>
		<path class="st15" d="M15,65.6c0.8-0.6,2.9-0.7,4.3-0.3c1.4,0.5,0.9,1.9,0.9,1.9s-0.4,1.5-1.8,1.1C16.9,67.9,15.3,66.5,15,65.6z"
			/>
	</g>
	<g>
		<linearGradient id="SVGID_17_" gradientUnits="userSpaceOnUse" x1="20.3841" y1="62.1774" x2="20.3841" y2="57.0728">
			<stop  offset="0" style="stop-color:#3CAED5"/>
			<stop  offset="1" style="stop-color:#FFFFFF"/>
		</linearGradient>
		<path class="st16" d="M21.9,57.1c-1,0.1-2.5,1.6-3.2,2.9c-0.7,1.3,0.8,2,0.8,2s1.4,0.8,2.1-0.6S22.4,57.9,21.9,57.1z"/>
		<linearGradient id="SVGID_18_" gradientUnits="userSpaceOnUse" x1="15.577" y1="63.4505" x2="15.577" y2="59.8007">
			<stop  offset="0" style="stop-color:#3CAED5"/>
			<stop  offset="1" style="stop-color:#FFFFFF"/>
		</linearGradient>
		<path class="st17" d="M13,60.1c0.8-0.5,3-0.3,4.3,0.4c1.3,0.7,0.6,2.1,0.6,2.1s-0.6,1.5-2,0.8C14.6,62.6,13.2,61,13,60.1z"/>
	</g>
	<g>
		<linearGradient id="SVGID_19_" gradientUnits="userSpaceOnUse" x1="19.2949" y1="57.5057" x2="19.2949" y2="52.6891">
			<stop  offset="0" style="stop-color:#3CAED5"/>
			<stop  offset="1" style="stop-color:#FFFFFF"/>
		</linearGradient>
		<path class="st18" d="M21.2,52.7c-1,0-2.8,1.1-3.6,2.4s0.5,2.1,0.5,2.1s1.2,1,2.1-0.2C21,55.7,21.5,53.6,21.2,52.7z"/>
		<linearGradient id="SVGID_20_" gradientUnits="userSpaceOnUse" x1="14.3326" y1="58.1748" x2="14.3326" y2="54.1543">
			<stop  offset="0" style="stop-color:#3CAED5"/>
			<stop  offset="1" style="stop-color:#FFFFFF"/>
		</linearGradient>
		<path class="st19" d="M11.9,54.3c0.9-0.3,3,0.2,4.2,1s0.2,2.1,0.2,2.1s-0.9,1.3-2.1,0.5S11.9,55.2,11.9,54.3z"/>
	</g>
	<g>
		<linearGradient id="SVGID_21_" gradientUnits="userSpaceOnUse" x1="18.9711" y1="52.6863" x2="18.9711" y2="48.2234">
			<stop  offset="0" style="stop-color:#3CAED5"/>
			<stop  offset="1" style="stop-color:#FFFFFF"/>
		</linearGradient>
		<path class="st20" d="M21.1,48.2c-0.9-0.2-2.9,0.7-3.9,1.8c-1.1,1.1,0.1,2.1,0.1,2.1s1.1,1.2,2.1,0.1
			C20.5,51.2,21.3,49.2,21.1,48.2z"/>
		<linearGradient id="SVGID_22_" gradientUnits="userSpaceOnUse" x1="13.9508" y1="52.7316" x2="13.9508" y2="48.3233">
			<stop  offset="0" style="stop-color:#3CAED5"/>
			<stop  offset="1" style="stop-color:#FFFFFF"/>
		</linearGradient>
		<path class="st21" d="M11.7,48.3c0.9-0.2,2.9,0.6,4,1.7c1.1,1.1-0.1,2.1-0.1,2.1s-1,1.2-2.1,0.1C12.4,51.2,11.6,49.3,11.7,48.3z"
			/>
	</g>
	<g>
		<linearGradient id="SVGID_23_" gradientUnits="userSpaceOnUse" x1="19.4025" y1="47.8333" x2="19.4025" y2="43.7564">
			<stop  offset="0" style="stop-color:#3CAED5"/>
			<stop  offset="1" style="stop-color:#FFFFFF"/>
		</linearGradient>
		<path class="st22" d="M21.8,43.8c-0.9-0.3-3,0.2-4.2,1.1c-1.2,0.9-0.2,2.1-0.2,2.1s0.9,1.3,2.1,0.4C20.7,46.6,21.8,44.8,21.8,43.8
			z"/>
		<linearGradient id="SVGID_24_" gradientUnits="userSpaceOnUse" x1="14.4257" y1="47.2537" x2="14.4257" y2="42.4851">
			<stop  offset="0" style="stop-color:#3CAED5"/>
			<stop  offset="1" style="stop-color:#FFFFFF"/>
		</linearGradient>
		<path class="st23" d="M12.5,42.5c1,0,2.8,1.1,3.7,2.3c0.9,1.2-0.4,2.1-0.4,2.1s-1.2,1-2.1-0.2C12.7,45.5,12.2,43.4,12.5,42.5z"/>
	</g>
	<g>
		<linearGradient id="SVGID_25_" gradientUnits="userSpaceOnUse" x1="20.5642" y1="43.0638" x2="20.5642" y2="39.3639">
			<stop  offset="0" style="stop-color:#3CAED5"/>
			<stop  offset="1" style="stop-color:#FFFFFF"/>
		</linearGradient>
		<path class="st24" d="M23.1,39.6c-0.9-0.4-3-0.2-4.3,0.5c-1.3,0.7-0.5,2.1-0.5,2.1s0.7,1.4,2,0.7C21.6,42.2,23,40.5,23.1,39.6z"/>
		<linearGradient id="SVGID_26_" gradientUnits="userSpaceOnUse" x1="15.7291" y1="41.8761" x2="15.7291" y2="36.8078">
			<stop  offset="0" style="stop-color:#3CAED5"/>
			<stop  offset="1" style="stop-color:#FFFFFF"/>
		</linearGradient>
		<path class="st25" d="M14.1,36.8c1,0.1,2.6,1.5,3.3,2.8c0.7,1.3-0.7,2-0.7,2s-1.4,0.8-2.1-0.5C13.9,39.8,13.7,37.7,14.1,36.8z"/>
	</g>
	<g>
		<linearGradient id="SVGID_27_" gradientUnits="userSpaceOnUse" x1="22.414" y1="38.4948" x2="22.414" y2="35.0985">
			<stop  offset="0" style="stop-color:#3CAED5"/>
			<stop  offset="1" style="stop-color:#FFFFFF"/>
		</linearGradient>
		<path class="st26" d="M25.1,35.6c-0.8-0.6-2.9-0.7-4.3-0.2c-1.4,0.5-0.8,2-0.8,2s0.4,1.5,1.9,1C23.2,37.9,24.8,36.5,25.1,35.6z"/>
		<linearGradient id="SVGID_28_" gradientUnits="userSpaceOnUse" x1="17.8031" y1="36.7343" x2="17.8031" y2="31.4527">
			<stop  offset="0" style="stop-color:#3CAED5"/>
			<stop  offset="1" style="stop-color:#FFFFFF"/>
		</linearGradient>
		<path class="st27" d="M16.6,31.5c0.9,0.3,2.3,1.9,2.8,3.3c0.5,1.4-1,1.9-1,1.9s-1.5,0.6-2-0.8C15.9,34.3,16,32.2,16.6,31.5z"/>
	</g>
	<g>
		<linearGradient id="SVGID_29_" gradientUnits="userSpaceOnUse" x1="24.9029" y1="34.2406" x2="24.9029" y2="31.021">
			<stop  offset="0" style="stop-color:#3CAED5"/>
			<stop  offset="1" style="stop-color:#FFFFFF"/>
		</linearGradient>
		<path class="st28" d="M27.6,32c-0.7-0.7-2.8-1.1-4.2-0.9c-1.5,0.3-1.1,1.8-1.1,1.8s0.2,1.6,1.7,1.3S27.2,32.8,27.6,32z"/>
		<linearGradient id="SVGID_30_" gradientUnits="userSpaceOnUse" x1="20.5773" y1="31.9599" x2="20.5773" y2="26.5506">
			<stop  offset="0" style="stop-color:#3CAED5"/>
			<stop  offset="1" style="stop-color:#FFFFFF"/>
		</linearGradient>
		<path class="st29" d="M19.9,26.6c0.9,0.4,2,2.2,2.3,3.7c0.3,1.5-1.3,1.7-1.3,1.7s-1.5,0.4-1.8-1.1S19.2,27.2,19.9,26.6z"/>
	</g>
	<g>
		<linearGradient id="SVGID_31_" gradientUnits="userSpaceOnUse" x1="27.9671" y1="30.4108" x2="27.9671" y2="27.2478">
			<stop  offset="0" style="stop-color:#3CAED5"/>
			<stop  offset="1" style="stop-color:#FFFFFF"/>
		</linearGradient>
		<path class="st30" d="M30.7,28.8c-0.6-0.8-2.5-1.5-4.1-1.5c-1.5,0-1.4,1.6-1.4,1.6s-0.1,1.6,1.5,1.6S30.2,29.6,30.7,28.8z"/>
		<linearGradient id="SVGID_32_" gradientUnits="userSpaceOnUse" x1="23.9968" y1="27.6758" x2="23.9968" y2="22.2205">
			<stop  offset="0" style="stop-color:#3CAED5"/>
			<stop  offset="1" style="stop-color:#FFFFFF"/>
		</linearGradient>
		<path class="st31" d="M23.9,22.2c0.8,0.5,1.6,2.5,1.6,4c0,1.5-1.6,1.5-1.6,1.5s-1.6,0.1-1.6-1.4C22.4,24.8,23.1,22.8,23.9,22.2z"
			/>
	</g>
	<g>
		<linearGradient id="SVGID_33_" gradientUnits="userSpaceOnUse" x1="31.5285" y1="27.1349" x2="31.5285" y2="23.9366">
			<stop  offset="0" style="stop-color:#3CAED5"/>
			<stop  offset="1" style="stop-color:#FFFFFF"/>
		</linearGradient>
		<path class="st32" d="M34.2,26.1c-0.4-0.9-2.3-1.9-3.8-2.1c-1.5-0.2-1.6,1.4-1.6,1.4s-0.3,1.6,1.2,1.8S33.6,26.8,34.2,26.1z"/>
		<linearGradient id="SVGID_34_" gradientUnits="userSpaceOnUse" x1="28.0295" y1="23.9937" x2="28.0295" y2="18.5675">
			<stop  offset="0" style="stop-color:#3CAED5"/>
			<stop  offset="1" style="stop-color:#FFFFFF"/>
		</linearGradient>
		<path class="st33" d="M28.6,18.6c0.7,0.6,1.2,2.7,1,4.2c-0.2,1.5-1.8,1.2-1.8,1.2s-1.6-0.1-1.4-1.6C26.7,20.8,27.7,19,28.6,18.6z"
			/>
	</g>
	<g>
		<linearGradient id="SVGID_35_" gradientUnits="userSpaceOnUse" x1="35.5036" y1="24.5657" x2="35.5036" y2="21.2193">
			<stop  offset="0" style="stop-color:#3CAED5"/>
			<stop  offset="1" style="stop-color:#FFFFFF"/>
		</linearGradient>
		<path class="st34" d="M38.2,24c-0.3-0.9-2-2.2-3.4-2.7c-1.4-0.4-1.8,1.1-1.8,1.1s-0.5,1.5,0.9,1.9C35.3,24.8,37.4,24.6,38.2,24z"
			/>
		<linearGradient id="SVGID_36_" gradientUnits="userSpaceOnUse" x1="32.6401" y1="20.9967" x2="32.6401" y2="15.6803">
			<stop  offset="0" style="stop-color:#3CAED5"/>
			<stop  offset="1" style="stop-color:#FFFFFF"/>
		</linearGradient>
		<path class="st35" d="M33.7,15.7c0.6,0.8,0.8,2.9,0.3,4.3c-0.4,1.4-1.9,0.9-1.9,0.9s-1.5-0.4-1.1-1.8C31.5,17.6,32.8,16,33.7,15.7
			z"/>
	</g>
	<g>
		<linearGradient id="SVGID_37_" gradientUnits="userSpaceOnUse" x1="39.7992" y1="22.795" x2="39.7992" y2="19.1696">
			<stop  offset="0" style="stop-color:#3CAED5"/>
			<stop  offset="1" style="stop-color:#FFFFFF"/>
		</linearGradient>
		<path class="st36" d="M42.4,22.5c-0.1-0.9-1.6-2.5-2.9-3.2c-1.4-0.7-2,0.8-2,0.8s-0.8,1.4,0.6,2C39.4,22.8,41.5,23,42.4,22.5z"/>
		<linearGradient id="SVGID_38_" gradientUnits="userSpaceOnUse" x1="37.7353" y1="18.751" x2="37.7353" y2="13.6289">
			<stop  offset="0" style="stop-color:#3CAED5"/>
			<stop  offset="1" style="stop-color:#FFFFFF"/>
		</linearGradient>
		<path class="st37" d="M39.3,13.6c0.5,0.8,0.3,3-0.3,4.3c-0.7,1.4-2,0.6-2,0.6s-1.5-0.6-0.8-2S38.3,13.8,39.3,13.6z"/>
	</g>
	<g>
		<linearGradient id="SVGID_39_" gradientUnits="userSpaceOnUse" x1="44.315" y1="21.8338" x2="44.315" y2="17.8414">
			<stop  offset="0" style="stop-color:#3CAED5"/>
			<stop  offset="1" style="stop-color:#FFFFFF"/>
		</linearGradient>
		<path class="st38" d="M46.7,21.7c0-1-1.2-2.7-2.4-3.6c-1.2-0.9-2.1,0.5-2.1,0.5s-1,1.3,0.3,2.1C43.8,21.6,45.8,22.1,46.7,21.7z"/>
		<linearGradient id="SVGID_40_" gradientUnits="userSpaceOnUse" x1="43.1775" y1="17.3035" x2="43.1775" y2="12.4632">
			<stop  offset="0" style="stop-color:#3CAED5"/>
			<stop  offset="1" style="stop-color:#FFFFFF"/>
		</linearGradient>
		<path class="st39" d="M45.1,12.5c0.3,0.9-0.1,3-1,4.2c-0.9,1.2-2.1,0.3-2.1,0.3s-1.3-0.8-0.5-2.1S44.1,12.5,45.1,12.5z"/>
	</g>
	<g>
		<linearGradient id="SVGID_41_" gradientUnits="userSpaceOnUse" x1="54.6766" y1="82.6786" x2="54.6766" y2="77.8859">
			<stop  offset="0" style="stop-color:#3CAED5"/>
			<stop  offset="1" style="stop-color:#FFFFFF"/>
		</linearGradient>
		<path class="st40" d="M56.6,77.9c0.3,0.9-0.2,3-1.1,4.2s-2.1,0.2-2.1,0.2s-1.3-0.9-0.4-2.1S55.6,77.9,56.6,77.9z"/>
		<linearGradient id="SVGID_42_" gradientUnits="userSpaceOnUse" x1="55.673" y1="87.2763" x2="55.673" y2="83.2277">
			<stop  offset="0" style="stop-color:#3CAED5"/>
			<stop  offset="1" style="stop-color:#FFFFFF"/>
		</linearGradient>
		<path class="st41" d="M58.1,87.2c0-1-1.1-2.8-2.3-3.6c-1.2-0.9-2.1,0.4-2.1,0.4s-1,1.2,0.2,2.1C55.1,87,57.2,87.5,58.1,87.2z"/>
	</g>
	<g>
		<linearGradient id="SVGID_43_" gradientUnits="userSpaceOnUse" x1="59.2485" y1="81.6127" x2="59.2485" y2="76.526">
			<stop  offset="0" style="stop-color:#3CAED5"/>
			<stop  offset="1" style="stop-color:#FFFFFF"/>
		</linearGradient>
		<path class="st42" d="M60.8,76.5c0.5,0.8,0.3,3-0.4,4.3c-0.7,1.3-2.1,0.5-2.1,0.5s-1.4-0.7-0.8-2C58.3,78,59.9,76.7,60.8,76.5z"/>
		<linearGradient id="SVGID_44_" gradientUnits="userSpaceOnUse" x1="61.185" y1="85.728" x2="61.185" y2="82.0533">
			<stop  offset="0" style="stop-color:#3CAED5"/>
			<stop  offset="1" style="stop-color:#FFFFFF"/>
		</linearGradient>
		<path class="st43" d="M63.7,85.5c-0.1-1-1.5-2.6-2.9-3.2c-1.3-0.7-2,0.8-2,0.8s-0.8,1.4,0.5,2.1C60.8,85.7,62.9,85.9,63.7,85.5z"
			/>
	</g>
	<g>
		<linearGradient id="SVGID_45_" gradientUnits="userSpaceOnUse" x1="63.6506" y1="79.8184" x2="63.6506" y2="74.5247">
			<stop  offset="0" style="stop-color:#3CAED5"/>
			<stop  offset="1" style="stop-color:#FFFFFF"/>
		</linearGradient>
		<path class="st44" d="M64.8,74.5c0.6,0.8,0.7,2.9,0.2,4.3c-0.5,1.4-1.9,0.9-1.9,0.9s-1.5-0.4-1.1-1.8
			C62.5,76.4,63.9,74.8,64.8,74.5z"/>
		<linearGradient id="SVGID_46_" gradientUnits="userSpaceOnUse" x1="66.4081" y1="83.4533" x2="66.4081" y2="80.0743">
			<stop  offset="0" style="stop-color:#3CAED5"/>
			<stop  offset="1" style="stop-color:#FFFFFF"/>
		</linearGradient>
		<path class="st45" d="M69.1,82.9c-0.3-0.9-1.9-2.3-3.3-2.8c-1.4-0.5-1.8,1.1-1.8,1.1s-0.6,1.5,0.9,1.9
			C66.2,83.6,68.3,83.5,69.1,82.9z"/>
	</g>
	<g>
		<linearGradient id="SVGID_47_" gradientUnits="userSpaceOnUse" x1="67.7943" y1="77.3464" x2="67.7943" y2="71.9311">
			<stop  offset="0" style="stop-color:#3CAED5"/>
			<stop  offset="1" style="stop-color:#FFFFFF"/>
		</linearGradient>
		<path class="st46" d="M68.4,71.9c0.7,0.7,1.2,2.7,0.9,4.2c-0.2,1.5-1.8,1.2-1.8,1.2s-1.6-0.2-1.3-1.7
			C66.5,74.2,67.6,72.3,68.4,71.9z"/>
		<linearGradient id="SVGID_48_" gradientUnits="userSpaceOnUse" x1="71.2119" y1="80.5471" x2="71.2119" y2="77.3352">
			<stop  offset="0" style="stop-color:#3CAED5"/>
			<stop  offset="1" style="stop-color:#FFFFFF"/>
		</linearGradient>
		<path class="st47" d="M73.9,79.6c-0.4-0.9-2.2-2-3.7-2.2c-1.5-0.2-1.7,1.3-1.7,1.3s-0.3,1.5,1.2,1.8
			C71.2,80.7,73.3,80.3,73.9,79.6z"/>
	</g>
	<g>
		<linearGradient id="SVGID_49_" gradientUnits="userSpaceOnUse" x1="71.5646" y1="74.2633" x2="71.5646" y2="68.8079">
			<stop  offset="0" style="stop-color:#3CAED5"/>
			<stop  offset="1" style="stop-color:#FFFFFF"/>
		</linearGradient>
		<path class="st48" d="M71.6,68.8c0.8,0.5,1.6,2.5,1.6,4c0,1.5-1.6,1.4-1.6,1.4S70,74.3,70,72.8C70,71.3,70.8,69.3,71.6,68.8z"/>
		<linearGradient id="SVGID_50_" gradientUnits="userSpaceOnUse" x1="75.4763" y1="77.0583" x2="75.4763" y2="73.8957">
			<stop  offset="0" style="stop-color:#3CAED5"/>
			<stop  offset="1" style="stop-color:#FFFFFF"/>
		</linearGradient>
		<path class="st49" d="M78.2,75.5c-0.5-0.8-2.5-1.6-4-1.6c-1.5,0-1.4,1.6-1.4,1.6s-0.1,1.6,1.4,1.6C75.7,77.1,77.7,76.3,78.2,75.5z
			"/>
	</g>
	<g>
		<linearGradient id="SVGID_51_" gradientUnits="userSpaceOnUse" x1="74.8149" y1="70.6521" x2="74.8149" y2="65.2312">
			<stop  offset="0" style="stop-color:#3CAED5"/>
			<stop  offset="1" style="stop-color:#FFFFFF"/>
		</linearGradient>
		<path class="st50" d="M74.2,65.2c0.9,0.4,1.9,2.3,2.2,3.7c0.2,1.5-1.3,1.6-1.3,1.6s-1.6,0.3-1.8-1.2C73,68,73.5,65.9,74.2,65.2z"
			/>
		<linearGradient id="SVGID_52_" gradientUnits="userSpaceOnUse" x1="79.0939" y1="73.0027" x2="79.0939" y2="69.7979">
			<stop  offset="0" style="stop-color:#3CAED5"/>
			<stop  offset="1" style="stop-color:#FFFFFF"/>
		</linearGradient>
		<path class="st51" d="M81.8,70.8c-0.7-0.7-2.7-1.2-4.2-1c-1.5,0.2-1.2,1.8-1.2,1.8s0.2,1.6,1.6,1.3C79.5,72.8,81.4,71.7,81.8,70.8
			z"/>
	</g>
	<g>
		<linearGradient id="SVGID_53_" gradientUnits="userSpaceOnUse" x1="77.4074" y1="66.5928" x2="77.4074" y2="61.2875">
			<stop  offset="0" style="stop-color:#3CAED5"/>
			<stop  offset="1" style="stop-color:#FFFFFF"/>
		</linearGradient>
		<path class="st52" d="M76.3,61.3c0.9,0.3,2.3,1.9,2.7,3.4c0.5,1.4-1.1,1.8-1.1,1.8S76.4,67,76,65.6C75.5,64.2,75.7,62,76.3,61.3z"
			/>
		<linearGradient id="SVGID_54_" gradientUnits="userSpaceOnUse" x1="81.9806" y1="68.4322" x2="81.9806" y2="65.0699">
			<stop  offset="0" style="stop-color:#3CAED5"/>
			<stop  offset="1" style="stop-color:#FFFFFF"/>
		</linearGradient>
		<path class="st53" d="M84.6,65.6c-0.8-0.6-2.9-0.7-4.3-0.3c-1.4,0.5-0.9,1.9-0.9,1.9s0.4,1.5,1.8,1.1
			C82.7,67.9,84.4,66.5,84.6,65.6z"/>
	</g>
	<g>
		<linearGradient id="SVGID_55_" gradientUnits="userSpaceOnUse" x1="79.2627" y1="62.1774" x2="79.2627" y2="57.0728">
			<stop  offset="0" style="stop-color:#3CAED5"/>
			<stop  offset="1" style="stop-color:#FFFFFF"/>
		</linearGradient>
		<path class="st54" d="M77.7,57.1c1,0.1,2.5,1.6,3.2,2.9c0.7,1.3-0.8,2-0.8,2s-1.4,0.8-2.1-0.6S77.2,57.9,77.7,57.1z"/>
		<linearGradient id="SVGID_56_" gradientUnits="userSpaceOnUse" x1="84.0697" y1="63.4505" x2="84.0697" y2="59.8007">
			<stop  offset="0" style="stop-color:#3CAED5"/>
			<stop  offset="1" style="stop-color:#FFFFFF"/>
		</linearGradient>
		<path class="st55" d="M86.6,60.1c-0.8-0.5-3-0.3-4.3,0.4c-1.3,0.7-0.6,2.1-0.6,2.1s0.6,1.5,2,0.8C85.1,62.6,86.5,61,86.6,60.1z"/>
	</g>
	<g>
		<linearGradient id="SVGID_57_" gradientUnits="userSpaceOnUse" x1="80.3519" y1="57.5057" x2="80.3519" y2="52.6891">
			<stop  offset="0" style="stop-color:#3CAED5"/>
			<stop  offset="1" style="stop-color:#FFFFFF"/>
		</linearGradient>
		<path class="st56" d="M78.4,52.7c1,0,2.8,1.1,3.6,2.4s-0.5,2.1-0.5,2.1s-1.2,1-2.1-0.2C78.6,55.7,78.1,53.6,78.4,52.7z"/>
		<linearGradient id="SVGID_58_" gradientUnits="userSpaceOnUse" x1="85.3141" y1="58.1748" x2="85.3141" y2="54.1543">
			<stop  offset="0" style="stop-color:#3CAED5"/>
			<stop  offset="1" style="stop-color:#FFFFFF"/>
		</linearGradient>
		<path class="st57" d="M87.7,54.3c-0.9-0.3-3,0.2-4.2,1s-0.2,2.1-0.2,2.1s0.9,1.3,2.1,0.5C86.6,57,87.7,55.2,87.7,54.3z"/>
	</g>
	<g>
		<linearGradient id="SVGID_59_" gradientUnits="userSpaceOnUse" x1="80.6756" y1="52.6863" x2="80.6756" y2="48.2234">
			<stop  offset="0" style="stop-color:#3CAED5"/>
			<stop  offset="1" style="stop-color:#FFFFFF"/>
		</linearGradient>
		<path class="st58" d="M78.5,48.2c0.9-0.2,2.9,0.7,3.9,1.8s-0.1,2.1-0.1,2.1s-1.1,1.2-2.1,0.1S78.3,49.2,78.5,48.2z"/>
		<linearGradient id="SVGID_60_" gradientUnits="userSpaceOnUse" x1="85.696" y1="52.7316" x2="85.696" y2="48.3233">
			<stop  offset="0" style="stop-color:#3CAED5"/>
			<stop  offset="1" style="stop-color:#FFFFFF"/>
		</linearGradient>
		<path class="st59" d="M87.9,48.3C87,48.2,85,49,83.9,50c-1.1,1.1,0.1,2.1,0.1,2.1s1,1.2,2.1,0.1C87.2,51.2,88.1,49.3,87.9,48.3z"
			/>
	</g>
	<g>
		<linearGradient id="SVGID_61_" gradientUnits="userSpaceOnUse" x1="80.2442" y1="47.8333" x2="80.2442" y2="43.7564">
			<stop  offset="0" style="stop-color:#3CAED5"/>
			<stop  offset="1" style="stop-color:#FFFFFF"/>
		</linearGradient>
		<path class="st60" d="M77.9,43.8c0.9-0.3,3,0.2,4.2,1.1s0.2,2.1,0.2,2.1s-0.9,1.3-2.1,0.4C78.9,46.6,77.8,44.8,77.9,43.8z"/>
		<linearGradient id="SVGID_62_" gradientUnits="userSpaceOnUse" x1="85.221" y1="47.2537" x2="85.221" y2="42.4851">
			<stop  offset="0" style="stop-color:#3CAED5"/>
			<stop  offset="1" style="stop-color:#FFFFFF"/>
		</linearGradient>
		<path class="st61" d="M87.2,42.5c-1,0-2.8,1.1-3.7,2.3c-0.9,1.2,0.4,2.1,0.4,2.1s1.2,1,2.1-0.2C86.9,45.5,87.5,43.4,87.2,42.5z"/>
	</g>
	<g>
		<linearGradient id="SVGID_63_" gradientUnits="userSpaceOnUse" x1="79.0825" y1="43.0638" x2="79.0825" y2="39.3639">
			<stop  offset="0" style="stop-color:#3CAED5"/>
			<stop  offset="1" style="stop-color:#FFFFFF"/>
		</linearGradient>
		<path class="st62" d="M76.5,39.6c0.9-0.4,3-0.2,4.3,0.5s0.5,2.1,0.5,2.1s-0.7,1.4-2,0.7C78,42.2,76.7,40.5,76.5,39.6z"/>
		<linearGradient id="SVGID_64_" gradientUnits="userSpaceOnUse" x1="83.9176" y1="41.8761" x2="83.9176" y2="36.8078">
			<stop  offset="0" style="stop-color:#3CAED5"/>
			<stop  offset="1" style="stop-color:#FFFFFF"/>
		</linearGradient>
		<path class="st63" d="M85.5,36.8c-1,0.1-2.6,1.5-3.3,2.8c-0.7,1.3,0.7,2,0.7,2s1.4,0.8,2.1-0.5C85.8,39.8,86,37.7,85.5,36.8z"/>
	</g>
	<g>
		<linearGradient id="SVGID_65_" gradientUnits="userSpaceOnUse" x1="77.2328" y1="38.4948" x2="77.2328" y2="35.0985">
			<stop  offset="0" style="stop-color:#3CAED5"/>
			<stop  offset="1" style="stop-color:#FFFFFF"/>
		</linearGradient>
		<path class="st64" d="M74.6,35.6c0.8-0.6,2.9-0.7,4.3-0.2c1.4,0.5,0.8,2,0.8,2s-0.4,1.5-1.9,1C76.5,37.9,74.9,36.5,74.6,35.6z"/>
		<linearGradient id="SVGID_66_" gradientUnits="userSpaceOnUse" x1="81.8437" y1="36.7343" x2="81.8437" y2="31.4527">
			<stop  offset="0" style="stop-color:#3CAED5"/>
			<stop  offset="1" style="stop-color:#FFFFFF"/>
		</linearGradient>
		<path class="st65" d="M83,31.5c-0.9,0.3-2.3,1.9-2.8,3.3c-0.5,1.4,1,1.9,1,1.9s1.5,0.6,2-0.8S83.6,32.2,83,31.5z"/>
	</g>
	<g>
		<linearGradient id="SVGID_67_" gradientUnits="userSpaceOnUse" x1="74.7439" y1="34.2406" x2="74.7439" y2="31.021">
			<stop  offset="0" style="stop-color:#3CAED5"/>
			<stop  offset="1" style="stop-color:#FFFFFF"/>
		</linearGradient>
		<path class="st66" d="M72,32c0.7-0.7,2.8-1.1,4.2-0.9c1.5,0.3,1.1,1.8,1.1,1.8s-0.2,1.6-1.7,1.3S72.4,32.8,72,32z"/>
		<linearGradient id="SVGID_68_" gradientUnits="userSpaceOnUse" x1="79.0694" y1="31.9599" x2="79.0694" y2="26.5506">
			<stop  offset="0" style="stop-color:#3CAED5"/>
			<stop  offset="1" style="stop-color:#FFFFFF"/>
		</linearGradient>
		<path class="st67" d="M79.7,26.6c-0.9,0.4-2,2.2-2.3,3.7s1.3,1.7,1.3,1.7s1.5,0.4,1.8-1.1S80.4,27.2,79.7,26.6z"/>
	</g>
	<g>
		<linearGradient id="SVGID_69_" gradientUnits="userSpaceOnUse" x1="71.6796" y1="30.4108" x2="71.6796" y2="27.2478">
			<stop  offset="0" style="stop-color:#3CAED5"/>
			<stop  offset="1" style="stop-color:#FFFFFF"/>
		</linearGradient>
		<path class="st68" d="M69,28.8c0.6-0.8,2.5-1.5,4.1-1.5c1.5,0,1.4,1.6,1.4,1.6s0.1,1.6-1.5,1.6C71.4,30.4,69.5,29.6,69,28.8z"/>
		<linearGradient id="SVGID_70_" gradientUnits="userSpaceOnUse" x1="75.65" y1="27.6758" x2="75.65" y2="22.2205">
			<stop  offset="0" style="stop-color:#3CAED5"/>
			<stop  offset="1" style="stop-color:#FFFFFF"/>
		</linearGradient>
		<path class="st69" d="M75.7,22.2c-0.8,0.5-1.6,2.5-1.6,4c0,1.5,1.6,1.5,1.6,1.5s1.6,0.1,1.6-1.4C77.3,24.8,76.5,22.8,75.7,22.2z"
			/>
	</g>
	<g>
		<linearGradient id="SVGID_71_" gradientUnits="userSpaceOnUse" x1="68.1183" y1="27.1349" x2="68.1183" y2="23.9366">
			<stop  offset="0" style="stop-color:#3CAED5"/>
			<stop  offset="1" style="stop-color:#FFFFFF"/>
		</linearGradient>
		<path class="st70" d="M65.4,26.1c0.4-0.9,2.3-1.9,3.8-2.1c1.5-0.2,1.6,1.4,1.6,1.4s0.3,1.6-1.2,1.8S66.1,26.8,65.4,26.1z"/>
		<linearGradient id="SVGID_72_" gradientUnits="userSpaceOnUse" x1="71.6172" y1="23.9937" x2="71.6172" y2="18.5675">
			<stop  offset="0" style="stop-color:#3CAED5"/>
			<stop  offset="1" style="stop-color:#FFFFFF"/>
		</linearGradient>
		<path class="st71" d="M71.1,18.6c-0.7,0.6-1.2,2.7-1,4.2c0.2,1.5,1.8,1.2,1.8,1.2s1.6-0.1,1.4-1.6C73,20.8,71.9,19,71.1,18.6z"/>
	</g>
	<g>
		<linearGradient id="SVGID_73_" gradientUnits="userSpaceOnUse" x1="64.1432" y1="24.5657" x2="64.1432" y2="21.2193">
			<stop  offset="0" style="stop-color:#3CAED5"/>
			<stop  offset="1" style="stop-color:#FFFFFF"/>
		</linearGradient>
		<path class="st72" d="M61.5,24c0.3-0.9,2-2.2,3.4-2.7c1.4-0.4,1.8,1.1,1.8,1.1s0.5,1.5-0.9,1.9C64.4,24.8,62.2,24.6,61.5,24z"/>
		<linearGradient id="SVGID_74_" gradientUnits="userSpaceOnUse" x1="67.0067" y1="20.9967" x2="67.0067" y2="15.6803">
			<stop  offset="0" style="stop-color:#3CAED5"/>
			<stop  offset="1" style="stop-color:#FFFFFF"/>
		</linearGradient>
		<path class="st73" d="M65.9,15.7c-0.6,0.8-0.8,2.9-0.3,4.3c0.4,1.4,1.9,0.9,1.9,0.9s1.5-0.4,1.1-1.8C68.2,17.6,66.8,16,65.9,15.7z
			"/>
	</g>
	<g>
		<linearGradient id="SVGID_75_" gradientUnits="userSpaceOnUse" x1="59.8475" y1="22.795" x2="59.8475" y2="19.1696">
			<stop  offset="0" style="stop-color:#3CAED5"/>
			<stop  offset="1" style="stop-color:#FFFFFF"/>
		</linearGradient>
		<path class="st74" d="M57.3,22.5c0.1-0.9,1.6-2.5,2.9-3.2c1.4-0.7,2,0.8,2,0.8s0.8,1.4-0.6,2C60.2,22.8,58.1,23,57.3,22.5z"/>
		<linearGradient id="SVGID_76_" gradientUnits="userSpaceOnUse" x1="61.9114" y1="18.751" x2="61.9114" y2="13.6289">
			<stop  offset="0" style="stop-color:#3CAED5"/>
			<stop  offset="1" style="stop-color:#FFFFFF"/>
		</linearGradient>
		<path class="st75" d="M60.4,13.6c-0.5,0.8-0.3,3,0.3,4.3c0.7,1.4,2,0.6,2,0.6s1.5-0.6,0.8-2S61.3,13.8,60.4,13.6z"/>
	</g>
	<g>
		<linearGradient id="SVGID_77_" gradientUnits="userSpaceOnUse" x1="55.3317" y1="21.8338" x2="55.3317" y2="17.8414">
			<stop  offset="0" style="stop-color:#3CAED5"/>
			<stop  offset="1" style="stop-color:#FFFFFF"/>
		</linearGradient>
		<path class="st76" d="M52.9,21.7c0-1,1.2-2.7,2.4-3.6s2.1,0.5,2.1,0.5s1,1.3-0.3,2.1C55.9,21.6,53.8,22.1,52.9,21.7z"/>
		<linearGradient id="SVGID_78_" gradientUnits="userSpaceOnUse" x1="56.4693" y1="17.3035" x2="56.4693" y2="12.4632">
			<stop  offset="0" style="stop-color:#3CAED5"/>
			<stop  offset="1" style="stop-color:#FFFFFF"/>
		</linearGradient>
		<path class="st77" d="M54.6,12.5c-0.3,0.9,0.1,3,1,4.2s2.1,0.3,2.1,0.3s1.3-0.8,0.5-2.1S55.5,12.5,54.6,12.5z"/>
	</g>
</g>
<linearGradient id="SVGID_79_" gradientUnits="userSpaceOnUse" x1="50.001" y1="71.1484" x2="50.001" y2="28.8536">
	<stop  offset="0" style="stop-color:#3CAED5"/>
	<stop  offset="1" style="stop-color:#FFFFFF"/>
</linearGradient>
<path class="st78" d="M50,28.9c-11.7,0-21.1,9.5-21.1,21.1c0,11.7,9.5,21.1,21.1,21.1c11.7,0,21.1-9.5,21.1-21.1
	C71.1,38.3,61.7,28.9,50,28.9z M45.5,61.8l-3.7-2l-3.7,2l0.7-4.2l-3-3l4.2-0.6l1.9-3.8l1.9,3.8l4.2,0.6l-3,3L45.5,61.8z M46.4,47.4
	l0.7-4.2l-3-3l4.2-0.6l1.9-3.8l1.9,3.8l4.2,0.6l-3,3l0.7,4.2l-3.7-2L46.4,47.4z M62,61.8l-3.7-2l-3.7,2l0.7-4.2l-3-3l4.2-0.6
	l1.9-3.8l1.9,3.8l4.2,0.6l-3,3L62,61.8z"/>
</svg>
