<?xml version="1.0" encoding="utf-8"?>
<!-- Generator: Adobe Illustrator 19.2.1, SVG Export Plug-In . SVG Version: 6.00 Build 0)  -->
<svg version="1.1" id="Layer_1" xmlns="http://www.w3.org/2000/svg" xmlns:xlink="http://www.w3.org/1999/xlink" x="0px" y="0px"
	 viewBox="0 0 100 100" style="enable-background:new 0 0 100 100;" xml:space="preserve">
<style type="text/css">
	.st0{fill:url(#SVGID_1_);}
	.st1{fill:url(#SVGID_2_);}
	.st2{fill:url(#SVGID_3_);}
	.st3{fill:url(#SVGID_4_);}
	.st4{fill:url(#SVGID_5_);}
	.st5{fill:url(#SVGID_6_);}
	.st6{fill:url(#SVGID_7_);}
	.st7{fill:url(#SVGID_8_);}
	.st8{fill:url(#SVGID_9_);}
	.st9{fill:url(#SVGID_10_);}
	.st10{fill:url(#SVGID_11_);}
	.st11{fill:url(#SVGID_12_);}
	.st12{fill:url(#SVGID_13_);}
	.st13{fill:url(#SVGID_14_);}
	.st14{fill:url(#SVGID_15_);}
	.st15{fill:url(#SVGID_16_);}
	.st16{fill:url(#SVGID_17_);}
	.st17{fill:url(#SVGID_18_);}
	.st18{fill:url(#SVGID_19_);}
	.st19{fill:url(#SVGID_20_);}
	.st20{fill:url(#SVGID_21_);}
	.st21{fill:url(#SVGID_22_);}
	.st22{fill:url(#SVGID_23_);}
	.st23{fill:url(#SVGID_24_);}
	.st24{fill:url(#SVGID_25_);}
	.st25{fill:url(#SVGID_26_);}
	.st26{fill:url(#SVGID_27_);}
	.st27{fill:url(#SVGID_28_);}
	.st28{fill:url(#SVGID_29_);}
	.st29{fill:url(#SVGID_30_);}
	.st30{fill:url(#SVGID_31_);}
	.st31{fill:url(#SVGID_32_);}
	.st32{fill:url(#SVGID_33_);}
	.st33{fill:url(#SVGID_34_);}
	.st34{fill:url(#SVGID_35_);}
	.st35{fill:url(#SVGID_36_);}
	.st36{fill:url(#SVGID_37_);}
	.st37{fill:url(#SVGID_38_);}
	.st38{fill:url(#SVGID_39_);}
	.st39{fill:url(#SVGID_40_);}
	.st40{fill:url(#SVGID_41_);}
	.st41{fill:url(#SVGID_42_);}
	.st42{fill:url(#SVGID_43_);}
	.st43{fill:url(#SVGID_44_);}
	.st44{fill:url(#SVGID_45_);}
	.st45{fill:url(#SVGID_46_);}
	.st46{fill:url(#SVGID_47_);}
	.st47{fill:url(#SVGID_48_);}
	.st48{fill:url(#SVGID_49_);}
	.st49{fill:url(#SVGID_50_);}
	.st50{fill:url(#SVGID_51_);}
	.st51{fill:url(#SVGID_52_);}
	.st52{fill:url(#SVGID_53_);}
	.st53{fill:url(#SVGID_54_);}
	.st54{fill:url(#SVGID_55_);}
	.st55{fill:url(#SVGID_56_);}
	.st56{fill:url(#SVGID_57_);}
	.st57{fill:url(#SVGID_58_);}
	.st58{fill:url(#SVGID_59_);}
	.st59{fill:url(#SVGID_60_);}
	.st60{fill:url(#SVGID_61_);}
	.st61{fill:url(#SVGID_62_);}
	.st62{fill:url(#SVGID_63_);}
	.st63{fill:url(#SVGID_64_);}
	.st64{fill:url(#SVGID_65_);}
	.st65{fill:url(#SVGID_66_);}
	.st66{fill:url(#SVGID_67_);}
	.st67{fill:url(#SVGID_68_);}
	.st68{fill:url(#SVGID_69_);}
	.st69{fill:url(#SVGID_70_);}
	.st70{fill:url(#SVGID_71_);}
	.st71{fill:url(#SVGID_72_);}
	.st72{fill:url(#SVGID_73_);}
	.st73{fill:url(#SVGID_74_);}
	.st74{fill:url(#SVGID_75_);}
	.st75{fill:url(#SVGID_76_);}
	.st76{fill:url(#SVGID_77_);}
	.st77{fill:url(#SVGID_78_);}
	.st78{fill:url(#SVGID_79_);}
</style>
<radialGradient id="SVGID_1_" cx="50" cy="50" r="50" gradientUnits="userSpaceOnUse">
	<stop  offset="0" style="stop-color:#F1F1F2"/>
	<stop  offset="1" style="stop-color:#404041"/>
</radialGradient>
<circle class="st0" cx="50" cy="50" r="50"/>
<radialGradient id="SVGID_2_" cx="50.3173" cy="50.2295" r="44.7945" gradientUnits="userSpaceOnUse">
	<stop  offset="0" style="stop-color:#A6A8AB"/>
	<stop  offset="1" style="stop-color:#808184"/>
</radialGradient>
<polygon class="st1" points="50.3,5.4 54.4,8.8 59.1,6.3 62.4,10.4 67.5,8.8 69.9,13.5 75.2,13 76.7,18.1 82,18.6 82.5,23.8 
	87.6,25.3 87,30.6 91.7,33.1 90.1,38.2 94.3,41.5 91.7,46.2 95.1,50.2 91.7,54.3 94.3,59 90.1,62.3 91.7,67.4 87,69.8 87.6,75.1 
	82.5,76.6 82,81.9 76.7,82.4 75.2,87.5 69.9,86.9 67.5,91.6 62.4,90 59.1,94.2 54.4,91.6 50.3,95 46.2,91.6 41.6,94.2 38.2,90 
	33.2,91.6 30.7,86.9 25.4,87.5 23.9,82.4 18.6,81.9 18.2,76.6 13.1,75.1 13.6,69.8 8.9,67.4 10.5,62.3 6.4,59 8.9,54.3 5.5,50.2 
	8.9,46.2 6.4,41.5 10.5,38.2 8.9,33.1 13.6,30.6 13.1,25.3 18.2,23.8 18.6,18.6 23.9,18.1 25.4,13 30.7,13.5 33.2,8.8 38.2,10.4 
	41.6,6.3 46.2,8.8 "/>
<g>
	<g>
		<linearGradient id="SVGID_3_" gradientUnits="userSpaceOnUse" x1="45.3183" y1="82.7004" x2="45.3183" y2="77.938">
			<stop  offset="0" style="stop-color:#BBBDBF"/>
			<stop  offset="1" style="stop-color:#F1F1F2"/>
		</linearGradient>
		<path class="st2" d="M43.4,77.9c-0.3,0.9,0.2,3,1.1,4.2s2.1,0.2,2.1,0.2s1.3-0.9,0.4-2.1C46.1,79,44.4,77.9,43.4,77.9z"/>
		<linearGradient id="SVGID_4_" gradientUnits="userSpaceOnUse" x1="44.3282" y1="87.269" x2="44.3282" y2="83.246">
			<stop  offset="0" style="stop-color:#BBBDBF"/>
			<stop  offset="1" style="stop-color:#F1F1F2"/>
		</linearGradient>
		<path class="st3" d="M41.9,87.2c0-1,1.1-2.7,2.3-3.6s2.1,0.4,2.1,0.4s1,1.2-0.2,2.1S42.8,87.5,41.9,87.2z"/>
	</g>
	<g>
		<linearGradient id="SVGID_5_" gradientUnits="userSpaceOnUse" x1="40.7753" y1="81.6412" x2="40.7753" y2="76.5867">
			<stop  offset="0" style="stop-color:#BBBDBF"/>
			<stop  offset="1" style="stop-color:#F1F1F2"/>
		</linearGradient>
		<path class="st4" d="M39.2,76.6c-0.5,0.8-0.3,2.9,0.4,4.3c0.7,1.3,2,0.5,2,0.5s1.4-0.6,0.8-2C41.7,78.1,40.1,76.7,39.2,76.6z"/>
		<linearGradient id="SVGID_6_" gradientUnits="userSpaceOnUse" x1="38.8511" y1="85.7304" x2="38.8511" y2="82.079">
			<stop  offset="0" style="stop-color:#BBBDBF"/>
			<stop  offset="1" style="stop-color:#F1F1F2"/>
		</linearGradient>
		<path class="st5" d="M36.3,85.5c0.1-0.9,1.5-2.5,2.8-3.2s2,0.8,2,0.8s0.8,1.4-0.5,2S37.2,85.9,36.3,85.5z"/>
	</g>
	<g>
		<linearGradient id="SVGID_7_" gradientUnits="userSpaceOnUse" x1="36.401" y1="79.8582" x2="36.401" y2="74.5981">
			<stop  offset="0" style="stop-color:#BBBDBF"/>
			<stop  offset="1" style="stop-color:#F1F1F2"/>
		</linearGradient>
		<path class="st6" d="M35.2,74.6c-0.6,0.8-0.7,2.9-0.2,4.3c0.5,1.4,1.9,0.9,1.9,0.9s1.5-0.4,1.1-1.8C37.5,76.5,36.2,74.9,35.2,74.6
			z"/>
		<linearGradient id="SVGID_8_" gradientUnits="userSpaceOnUse" x1="33.661" y1="83.4701" x2="33.661" y2="80.1126">
			<stop  offset="0" style="stop-color:#BBBDBF"/>
			<stop  offset="1" style="stop-color:#F1F1F2"/>
		</linearGradient>
		<path class="st7" d="M31,82.9c0.3-0.9,1.9-2.3,3.3-2.7c1.4-0.5,1.8,1.1,1.8,1.1s0.6,1.5-0.9,1.9C33.9,83.7,31.8,83.5,31,82.9z"/>
	</g>
	<g>
		<linearGradient id="SVGID_9_" gradientUnits="userSpaceOnUse" x1="32.2836" y1="77.4019" x2="32.2836" y2="72.0209">
			<stop  offset="0" style="stop-color:#BBBDBF"/>
			<stop  offset="1" style="stop-color:#F1F1F2"/>
		</linearGradient>
		<path class="st8" d="M31.7,72c-0.7,0.7-1.1,2.7-0.9,4.2s1.8,1.1,1.8,1.1s1.6-0.2,1.3-1.7C33.6,74.2,32.5,72.4,31.7,72z"/>
		<linearGradient id="SVGID_10_" gradientUnits="userSpaceOnUse" x1="28.8876" y1="80.5824" x2="28.8876" y2="77.3908">
			<stop  offset="0" style="stop-color:#BBBDBF"/>
			<stop  offset="1" style="stop-color:#F1F1F2"/>
		</linearGradient>
		<path class="st9" d="M26.2,79.6c0.4-0.9,2.2-2,3.7-2.2c1.5-0.2,1.7,1.3,1.7,1.3s0.3,1.5-1.1,1.8C28.9,80.8,26.9,80.3,26.2,79.6z"
			/>
	</g>
	<g>
		<linearGradient id="SVGID_11_" gradientUnits="userSpaceOnUse" x1="28.5371" y1="74.3384" x2="28.5371" y2="68.9175">
			<stop  offset="0" style="stop-color:#BBBDBF"/>
			<stop  offset="1" style="stop-color:#F1F1F2"/>
		</linearGradient>
		<path class="st10" d="M28.5,68.9c-0.8,0.5-1.6,2.5-1.5,4c0,1.5,1.6,1.4,1.6,1.4s1.6,0.1,1.6-1.4C30.1,71.4,29.3,69.5,28.5,68.9z"
			/>
		<linearGradient id="SVGID_12_" gradientUnits="userSpaceOnUse" x1="24.6502" y1="77.1157" x2="24.6502" y2="73.9731">
			<stop  offset="0" style="stop-color:#BBBDBF"/>
			<stop  offset="1" style="stop-color:#F1F1F2"/>
		</linearGradient>
		<path class="st11" d="M21.9,75.6c0.5-0.8,2.5-1.6,4-1.6c1.5,0,1.4,1.6,1.4,1.6s0.1,1.6-1.4,1.6C24.5,77.1,22.5,76.3,21.9,75.6z"/>
	</g>
	<g>
		<linearGradient id="SVGID_13_" gradientUnits="userSpaceOnUse" x1="25.3074" y1="70.75" x2="25.3074" y2="65.3633">
			<stop  offset="0" style="stop-color:#BBBDBF"/>
			<stop  offset="1" style="stop-color:#F1F1F2"/>
		</linearGradient>
		<path class="st12" d="M25.9,65.4c-0.9,0.4-1.9,2.2-2.2,3.7c-0.2,1.5,1.3,1.6,1.3,1.6s1.5,0.3,1.8-1.2C27.1,68.1,26.6,66,25.9,65.4
			z"/>
		<linearGradient id="SVGID_14_" gradientUnits="userSpaceOnUse" x1="21.0555" y1="73.0857" x2="21.0555" y2="69.9012">
			<stop  offset="0" style="stop-color:#BBBDBF"/>
			<stop  offset="1" style="stop-color:#F1F1F2"/>
		</linearGradient>
		<path class="st13" d="M18.4,70.9c0.7-0.7,2.7-1.2,4.2-1c1.5,0.2,1.2,1.8,1.2,1.8s-0.2,1.6-1.6,1.3C20.6,72.8,18.8,71.8,18.4,70.9z
			"/>
	</g>
	<g>
		<linearGradient id="SVGID_15_" gradientUnits="userSpaceOnUse" x1="22.7313" y1="66.7163" x2="22.7313" y2="61.4446">
			<stop  offset="0" style="stop-color:#BBBDBF"/>
			<stop  offset="1" style="stop-color:#F1F1F2"/>
		</linearGradient>
		<path class="st14" d="M23.8,61.4c-0.9,0.3-2.3,1.9-2.7,3.3c-0.5,1.4,1.1,1.8,1.1,1.8s1.5,0.5,1.9-0.9
			C24.6,64.3,24.4,62.2,23.8,61.4z"/>
		<linearGradient id="SVGID_16_" gradientUnits="userSpaceOnUse" x1="18.187" y1="68.5441" x2="18.187" y2="65.2031">
			<stop  offset="0" style="stop-color:#BBBDBF"/>
			<stop  offset="1" style="stop-color:#F1F1F2"/>
		</linearGradient>
		<path class="st15" d="M15.6,65.8c0.8-0.6,2.9-0.7,4.3-0.3c1.4,0.5,0.9,1.9,0.9,1.9s-0.4,1.5-1.8,1.1C17.5,68,15.8,66.7,15.6,65.8z
			"/>
	</g>
	<g>
		<linearGradient id="SVGID_17_" gradientUnits="userSpaceOnUse" x1="20.8877" y1="62.3289" x2="20.8877" y2="57.2566">
			<stop  offset="0" style="stop-color:#BBBDBF"/>
			<stop  offset="1" style="stop-color:#F1F1F2"/>
		</linearGradient>
		<path class="st16" d="M22.4,57.3c-0.9,0.1-2.5,1.5-3.2,2.9c-0.7,1.3,0.8,2,0.8,2s1.4,0.8,2-0.6C22.7,60.2,22.9,58.1,22.4,57.3z"/>
		<linearGradient id="SVGID_18_" gradientUnits="userSpaceOnUse" x1="16.1111" y1="63.594" x2="16.1111" y2="59.9672">
			<stop  offset="0" style="stop-color:#BBBDBF"/>
			<stop  offset="1" style="stop-color:#F1F1F2"/>
		</linearGradient>
		<path class="st17" d="M13.6,60.2c0.8-0.5,2.9-0.3,4.3,0.4c1.3,0.7,0.6,2,0.6,2s-0.6,1.4-2,0.8S13.7,61.2,13.6,60.2z"/>
	</g>
	<g>
		<linearGradient id="SVGID_19_" gradientUnits="userSpaceOnUse" x1="19.8054" y1="57.6868" x2="19.8054" y2="52.9006">
			<stop  offset="0" style="stop-color:#BBBDBF"/>
			<stop  offset="1" style="stop-color:#F1F1F2"/>
		</linearGradient>
		<path class="st18" d="M21.7,52.9c-1,0-2.7,1.1-3.6,2.4c-0.9,1.2,0.5,2.1,0.5,2.1s1.2,1,2.1-0.2C21.5,55.9,22,53.8,21.7,52.9z"/>
		<linearGradient id="SVGID_20_" gradientUnits="userSpaceOnUse" x1="14.8746" y1="58.3516" x2="14.8746" y2="54.3566">
			<stop  offset="0" style="stop-color:#BBBDBF"/>
			<stop  offset="1" style="stop-color:#F1F1F2"/>
		</linearGradient>
		<path class="st19" d="M12.5,54.5c0.9-0.3,3,0.2,4.2,1c1.2,0.9,0.2,2.1,0.2,2.1s-0.8,1.3-2.1,0.5C13.6,57.2,12.5,55.4,12.5,54.5z"
			/>
	</g>
	<g>
		<linearGradient id="SVGID_21_" gradientUnits="userSpaceOnUse" x1="19.4837" y1="52.8978" x2="19.4837" y2="48.4631">
			<stop  offset="0" style="stop-color:#BBBDBF"/>
			<stop  offset="1" style="stop-color:#F1F1F2"/>
		</linearGradient>
		<path class="st20" d="M21.6,48.5c-0.9-0.2-2.9,0.7-3.9,1.8c-1,1.1,0.1,2.1,0.1,2.1s1.1,1.2,2.1,0.1S21.8,49.4,21.6,48.5z"/>
		<linearGradient id="SVGID_22_" gradientUnits="userSpaceOnUse" x1="14.4952" y1="52.9429" x2="14.4952" y2="48.5624">
			<stop  offset="0" style="stop-color:#BBBDBF"/>
			<stop  offset="1" style="stop-color:#F1F1F2"/>
		</linearGradient>
		<path class="st21" d="M12.3,48.6c0.9-0.2,2.9,0.6,4,1.7s-0.1,2.1-0.1,2.1s-1,1.2-2.1,0.1S12.1,49.5,12.3,48.6z"/>
	</g>
	<g>
		<linearGradient id="SVGID_23_" gradientUnits="userSpaceOnUse" x1="19.9124" y1="48.0755" x2="19.9124" y2="44.0245">
			<stop  offset="0" style="stop-color:#BBBDBF"/>
			<stop  offset="1" style="stop-color:#F1F1F2"/>
		</linearGradient>
		<path class="st22" d="M22.3,44.1c-0.9-0.3-2.9,0.2-4.1,1.1c-1.2,0.9-0.2,2.1-0.2,2.1s0.9,1.3,2.1,0.4
			C21.2,46.9,22.3,45.1,22.3,44.1z"/>
		<linearGradient id="SVGID_24_" gradientUnits="userSpaceOnUse" x1="14.9671" y1="47.4995" x2="14.9671" y2="42.7612">
			<stop  offset="0" style="stop-color:#BBBDBF"/>
			<stop  offset="1" style="stop-color:#F1F1F2"/>
		</linearGradient>
		<path class="st23" d="M13,42.8c1,0,2.8,1.1,3.7,2.3s-0.4,2.1-0.4,2.1s-1.2,1-2.1-0.2C13.3,45.7,12.7,43.7,13,42.8z"/>
	</g>
	<g>
		<linearGradient id="SVGID_25_" gradientUnits="userSpaceOnUse" x1="21.0667" y1="43.3362" x2="21.0667" y2="39.6597">
			<stop  offset="0" style="stop-color:#BBBDBF"/>
			<stop  offset="1" style="stop-color:#F1F1F2"/>
		</linearGradient>
		<path class="st24" d="M23.6,39.9c-0.8-0.4-2.9-0.2-4.3,0.5s-0.5,2.1-0.5,2.1s0.7,1.4,2,0.7S23.5,40.8,23.6,39.9z"/>
		<linearGradient id="SVGID_26_" gradientUnits="userSpaceOnUse" x1="16.2623" y1="42.1561" x2="16.2623" y2="37.1198">
			<stop  offset="0" style="stop-color:#BBBDBF"/>
			<stop  offset="1" style="stop-color:#F1F1F2"/>
		</linearGradient>
		<path class="st25" d="M14.7,37.1c0.9,0.1,2.6,1.5,3.3,2.8c0.7,1.3-0.7,2-0.7,2s-1.4,0.8-2.1-0.5S14.2,38,14.7,37.1z"/>
	</g>
	<g>
		<linearGradient id="SVGID_27_" gradientUnits="userSpaceOnUse" x1="22.9048" y1="38.7961" x2="22.9048" y2="35.4213">
			<stop  offset="0" style="stop-color:#BBBDBF"/>
			<stop  offset="1" style="stop-color:#F1F1F2"/>
		</linearGradient>
		<path class="st26" d="M25.5,35.9c-0.8-0.6-2.9-0.7-4.3-0.2c-1.4,0.5-0.8,1.9-0.8,1.9s0.4,1.5,1.8,1C23.7,38.2,25.3,36.8,25.5,35.9
			z"/>
		<linearGradient id="SVGID_28_" gradientUnits="userSpaceOnUse" x1="18.3231" y1="37.0467" x2="18.3231" y2="31.7985">
			<stop  offset="0" style="stop-color:#BBBDBF"/>
			<stop  offset="1" style="stop-color:#F1F1F2"/>
		</linearGradient>
		<path class="st27" d="M17.1,31.8c0.9,0.3,2.3,1.9,2.8,3.3c0.5,1.4-1,1.8-1,1.8s-1.5,0.6-1.9-0.8S16.6,32.6,17.1,31.8z"/>
	</g>
	<g>
		<linearGradient id="SVGID_29_" gradientUnits="userSpaceOnUse" x1="25.378" y1="34.5688" x2="25.378" y2="31.3695">
			<stop  offset="0" style="stop-color:#BBBDBF"/>
			<stop  offset="1" style="stop-color:#F1F1F2"/>
		</linearGradient>
		<path class="st28" d="M28.1,32.3c-0.7-0.7-2.7-1.1-4.2-0.9c-1.5,0.3-1.1,1.8-1.1,1.8s0.2,1.6,1.7,1.3
			C25.9,34.3,27.7,33.2,28.1,32.3z"/>
		<linearGradient id="SVGID_30_" gradientUnits="userSpaceOnUse" x1="21.0798" y1="32.3025" x2="21.0798" y2="26.9274">
			<stop  offset="0" style="stop-color:#BBBDBF"/>
			<stop  offset="1" style="stop-color:#F1F1F2"/>
		</linearGradient>
		<path class="st29" d="M20.4,26.9c0.9,0.4,2,2.2,2.2,3.7c0.3,1.5-1.3,1.7-1.3,1.7s-1.5,0.3-1.8-1.1C19.3,29.7,19.7,27.6,20.4,26.9z
			"/>
	</g>
	<g>
		<linearGradient id="SVGID_31_" gradientUnits="userSpaceOnUse" x1="28.4228" y1="30.7633" x2="28.4228" y2="27.6202">
			<stop  offset="0" style="stop-color:#BBBDBF"/>
			<stop  offset="1" style="stop-color:#F1F1F2"/>
		</linearGradient>
		<path class="st30" d="M31.1,29.1c-0.6-0.8-2.5-1.5-4-1.5s-1.4,1.6-1.4,1.6s-0.1,1.6,1.4,1.5C28.7,30.7,30.6,29.9,31.1,29.1z"/>
		<linearGradient id="SVGID_32_" gradientUnits="userSpaceOnUse" x1="24.4776" y1="28.0456" x2="24.4776" y2="22.6247">
			<stop  offset="0" style="stop-color:#BBBDBF"/>
			<stop  offset="1" style="stop-color:#F1F1F2"/>
		</linearGradient>
		<path class="st31" d="M24.4,22.6c0.8,0.5,1.6,2.5,1.6,4c0,1.5-1.5,1.4-1.5,1.4s-1.6,0.1-1.6-1.4C22.9,25.2,23.6,23.2,24.4,22.6z"
			/>
	</g>
	<g>
		<linearGradient id="SVGID_33_" gradientUnits="userSpaceOnUse" x1="31.9616" y1="27.5081" x2="31.9616" y2="24.33">
			<stop  offset="0" style="stop-color:#BBBDBF"/>
			<stop  offset="1" style="stop-color:#F1F1F2"/>
		</linearGradient>
		<path class="st32" d="M34.7,26.5c-0.4-0.9-2.3-1.9-3.7-2.1c-1.5-0.2-1.6,1.4-1.6,1.4s-0.3,1.5,1.2,1.8C32,27.7,34,27.2,34.7,26.5z
			"/>
		<linearGradient id="SVGID_34_" gradientUnits="userSpaceOnUse" x1="28.4848" y1="24.3867" x2="28.4848" y2="18.9949">
			<stop  offset="0" style="stop-color:#BBBDBF"/>
			<stop  offset="1" style="stop-color:#F1F1F2"/>
		</linearGradient>
		<path class="st33" d="M29,19c0.7,0.6,1.2,2.7,1,4.2s-1.8,1.2-1.8,1.2s-1.6-0.1-1.4-1.6C27.1,21.3,28.2,19.4,29,19z"/>
	</g>
	<g>
		<linearGradient id="SVGID_35_" gradientUnits="userSpaceOnUse" x1="35.9116" y1="24.9551" x2="35.9116" y2="21.6299">
			<stop  offset="0" style="stop-color:#BBBDBF"/>
			<stop  offset="1" style="stop-color:#F1F1F2"/>
		</linearGradient>
		<path class="st34" d="M38.6,24.4c-0.3-0.9-1.9-2.2-3.4-2.7c-1.4-0.4-1.8,1.1-1.8,1.1s-0.5,1.5,0.9,1.9
			C35.7,25.1,37.8,25,38.6,24.4z"/>
		<linearGradient id="SVGID_36_" gradientUnits="userSpaceOnUse" x1="33.0662" y1="21.4087" x2="33.0662" y2="16.1259">
			<stop  offset="0" style="stop-color:#BBBDBF"/>
			<stop  offset="1" style="stop-color:#F1F1F2"/>
		</linearGradient>
		<path class="st35" d="M34.1,16.1c0.6,0.7,0.8,2.9,0.3,4.3c-0.4,1.4-1.9,0.9-1.9,0.9s-1.5-0.4-1.1-1.8
			C31.9,18.1,33.2,16.4,34.1,16.1z"/>
	</g>
	<g>
		<linearGradient id="SVGID_37_" gradientUnits="userSpaceOnUse" x1="40.1801" y1="23.1956" x2="40.1801" y2="19.5932">
			<stop  offset="0" style="stop-color:#BBBDBF"/>
			<stop  offset="1" style="stop-color:#F1F1F2"/>
		</linearGradient>
		<path class="st36" d="M42.7,22.9c-0.1-0.9-1.6-2.5-2.9-3.2s-2,0.8-2,0.8s-0.8,1.4,0.6,2S41.9,23.4,42.7,22.9z"/>
		<linearGradient id="SVGID_38_" gradientUnits="userSpaceOnUse" x1="38.1292" y1="19.1772" x2="38.1292" y2="14.0875">
			<stop  offset="0" style="stop-color:#BBBDBF"/>
			<stop  offset="1" style="stop-color:#F1F1F2"/>
		</linearGradient>
		<path class="st37" d="M39.7,14.1c0.5,0.8,0.3,2.9-0.3,4.3c-0.7,1.3-2,0.6-2,0.6s-1.4-0.6-0.8-2C37.1,15.7,38.7,14.2,39.7,14.1z"/>
	</g>
	<g>
		<linearGradient id="SVGID_39_" gradientUnits="userSpaceOnUse" x1="44.6673" y1="22.2405" x2="44.6673" y2="18.2734">
			<stop  offset="0" style="stop-color:#BBBDBF"/>
			<stop  offset="1" style="stop-color:#F1F1F2"/>
		</linearGradient>
		<path class="st38" d="M47.1,22.1c0-1-1.2-2.7-2.4-3.6c-1.2-0.9-2.1,0.5-2.1,0.5s-1,1.2,0.3,2.1C44.1,22,46.2,22.5,47.1,22.1z"/>
		<linearGradient id="SVGID_40_" gradientUnits="userSpaceOnUse" x1="43.537" y1="17.7388" x2="43.537" y2="12.9291">
			<stop  offset="0" style="stop-color:#BBBDBF"/>
			<stop  offset="1" style="stop-color:#F1F1F2"/>
		</linearGradient>
		<path class="st39" d="M45.4,12.9c0.3,0.9-0.1,3-1,4.2s-2.1,0.3-2.1,0.3s-1.3-0.8-0.5-2.1S44.5,12.9,45.4,12.9z"/>
	</g>
	<g>
		<linearGradient id="SVGID_41_" gradientUnits="userSpaceOnUse" x1="54.9633" y1="82.7004" x2="54.9633" y2="77.938">
			<stop  offset="0" style="stop-color:#BBBDBF"/>
			<stop  offset="1" style="stop-color:#F1F1F2"/>
		</linearGradient>
		<path class="st40" d="M56.9,77.9c0.3,0.9-0.2,3-1.1,4.2c-0.9,1.2-2.1,0.2-2.1,0.2s-1.3-0.9-0.4-2.1C54.1,79,55.9,77.9,56.9,77.9z"
			/>
		<linearGradient id="SVGID_42_" gradientUnits="userSpaceOnUse" x1="55.9534" y1="87.269" x2="55.9534" y2="83.246">
			<stop  offset="0" style="stop-color:#BBBDBF"/>
			<stop  offset="1" style="stop-color:#F1F1F2"/>
		</linearGradient>
		<path class="st41" d="M58.3,87.2c0-1-1.1-2.7-2.3-3.6C54.8,82.7,54,84,54,84s-1,1.2,0.2,2.1S57.4,87.5,58.3,87.2z"/>
	</g>
	<g>
		<linearGradient id="SVGID_43_" gradientUnits="userSpaceOnUse" x1="59.5063" y1="81.6412" x2="59.5063" y2="76.5867">
			<stop  offset="0" style="stop-color:#BBBDBF"/>
			<stop  offset="1" style="stop-color:#F1F1F2"/>
		</linearGradient>
		<path class="st42" d="M61.1,76.6c0.5,0.8,0.3,2.9-0.4,4.3c-0.7,1.3-2,0.5-2,0.5s-1.4-0.6-0.8-2C58.5,78.1,60.1,76.7,61.1,76.6z"/>
		<linearGradient id="SVGID_44_" gradientUnits="userSpaceOnUse" x1="61.4305" y1="85.7304" x2="61.4305" y2="82.079">
			<stop  offset="0" style="stop-color:#BBBDBF"/>
			<stop  offset="1" style="stop-color:#F1F1F2"/>
		</linearGradient>
		<path class="st43" d="M64,85.5c-0.1-0.9-1.5-2.5-2.8-3.2c-1.3-0.7-2,0.8-2,0.8s-0.8,1.4,0.5,2S63.1,85.9,64,85.5z"/>
	</g>
	<g>
		<linearGradient id="SVGID_45_" gradientUnits="userSpaceOnUse" x1="63.8806" y1="79.8582" x2="63.8806" y2="74.5981">
			<stop  offset="0" style="stop-color:#BBBDBF"/>
			<stop  offset="1" style="stop-color:#F1F1F2"/>
		</linearGradient>
		<path class="st44" d="M65,74.6c0.6,0.8,0.7,2.9,0.2,4.3s-1.9,0.9-1.9,0.9s-1.5-0.4-1.1-1.8S64.1,74.9,65,74.6z"/>
		<linearGradient id="SVGID_46_" gradientUnits="userSpaceOnUse" x1="66.6206" y1="83.4701" x2="66.6206" y2="80.1126">
			<stop  offset="0" style="stop-color:#BBBDBF"/>
			<stop  offset="1" style="stop-color:#F1F1F2"/>
		</linearGradient>
		<path class="st45" d="M69.3,82.9c-0.3-0.9-1.9-2.3-3.3-2.7c-1.4-0.5-1.8,1.1-1.8,1.1s-0.6,1.5,0.9,1.9
			C66.4,83.7,68.5,83.5,69.3,82.9z"/>
	</g>
	<g>
		<linearGradient id="SVGID_47_" gradientUnits="userSpaceOnUse" x1="67.998" y1="77.4019" x2="67.998" y2="72.0209">
			<stop  offset="0" style="stop-color:#BBBDBF"/>
			<stop  offset="1" style="stop-color:#F1F1F2"/>
		</linearGradient>
		<path class="st46" d="M68.6,72c0.7,0.7,1.1,2.7,0.9,4.2s-1.8,1.1-1.8,1.1s-1.6-0.2-1.3-1.7C66.7,74.2,67.8,72.4,68.6,72z"/>
		<linearGradient id="SVGID_48_" gradientUnits="userSpaceOnUse" x1="71.394" y1="80.5824" x2="71.394" y2="77.3908">
			<stop  offset="0" style="stop-color:#BBBDBF"/>
			<stop  offset="1" style="stop-color:#F1F1F2"/>
		</linearGradient>
		<path class="st47" d="M74.1,79.6c-0.4-0.9-2.2-2-3.7-2.2s-1.7,1.3-1.7,1.3s-0.3,1.5,1.1,1.8C71.4,80.8,73.4,80.3,74.1,79.6z"/>
	</g>
	<g>
		<linearGradient id="SVGID_49_" gradientUnits="userSpaceOnUse" x1="71.7444" y1="74.3384" x2="71.7444" y2="68.9175">
			<stop  offset="0" style="stop-color:#BBBDBF"/>
			<stop  offset="1" style="stop-color:#F1F1F2"/>
		</linearGradient>
		<path class="st48" d="M71.8,68.9c0.8,0.5,1.6,2.5,1.5,4c0,1.5-1.6,1.4-1.6,1.4s-1.6,0.1-1.6-1.4C70.2,71.4,71,69.5,71.8,68.9z"/>
		<linearGradient id="SVGID_50_" gradientUnits="userSpaceOnUse" x1="75.6314" y1="77.1157" x2="75.6314" y2="73.9731">
			<stop  offset="0" style="stop-color:#BBBDBF"/>
			<stop  offset="1" style="stop-color:#F1F1F2"/>
		</linearGradient>
		<path class="st49" d="M78.3,75.6c-0.5-0.8-2.5-1.6-4-1.6c-1.5,0-1.4,1.6-1.4,1.6s-0.1,1.6,1.4,1.6S77.8,76.3,78.3,75.6z"/>
	</g>
	<g>
		<linearGradient id="SVGID_51_" gradientUnits="userSpaceOnUse" x1="74.9742" y1="70.75" x2="74.9742" y2="65.3633">
			<stop  offset="0" style="stop-color:#BBBDBF"/>
			<stop  offset="1" style="stop-color:#F1F1F2"/>
		</linearGradient>
		<path class="st50" d="M74.4,65.4c0.9,0.4,1.9,2.2,2.2,3.7c0.2,1.5-1.3,1.6-1.3,1.6s-1.5,0.3-1.8-1.2C73.2,68.1,73.7,66,74.4,65.4z
			"/>
		<linearGradient id="SVGID_52_" gradientUnits="userSpaceOnUse" x1="79.2262" y1="73.0857" x2="79.2262" y2="69.9012">
			<stop  offset="0" style="stop-color:#BBBDBF"/>
			<stop  offset="1" style="stop-color:#F1F1F2"/>
		</linearGradient>
		<path class="st51" d="M81.9,70.9c-0.7-0.7-2.7-1.2-4.2-1c-1.5,0.2-1.2,1.8-1.2,1.8s0.2,1.6,1.6,1.3C79.7,72.8,81.5,71.8,81.9,70.9
			z"/>
	</g>
	<g>
		<linearGradient id="SVGID_53_" gradientUnits="userSpaceOnUse" x1="77.5503" y1="66.7163" x2="77.5503" y2="61.4446">
			<stop  offset="0" style="stop-color:#BBBDBF"/>
			<stop  offset="1" style="stop-color:#F1F1F2"/>
		</linearGradient>
		<path class="st52" d="M76.4,61.4c0.9,0.3,2.3,1.9,2.7,3.3c0.5,1.4-1.1,1.8-1.1,1.8s-1.5,0.5-1.9-0.9
			C75.7,64.3,75.8,62.2,76.4,61.4z"/>
		<linearGradient id="SVGID_54_" gradientUnits="userSpaceOnUse" x1="82.0946" y1="68.5441" x2="82.0946" y2="65.2031">
			<stop  offset="0" style="stop-color:#BBBDBF"/>
			<stop  offset="1" style="stop-color:#F1F1F2"/>
		</linearGradient>
		<path class="st53" d="M84.7,65.8c-0.8-0.6-2.9-0.7-4.3-0.3c-1.4,0.5-0.9,1.9-0.9,1.9s0.4,1.5,1.8,1.1C82.8,68,84.5,66.7,84.7,65.8
			z"/>
	</g>
	<g>
		<linearGradient id="SVGID_55_" gradientUnits="userSpaceOnUse" x1="79.3939" y1="62.3289" x2="79.3939" y2="57.2566">
			<stop  offset="0" style="stop-color:#BBBDBF"/>
			<stop  offset="1" style="stop-color:#F1F1F2"/>
		</linearGradient>
		<path class="st54" d="M77.8,57.3c0.9,0.1,2.5,1.5,3.2,2.9c0.7,1.3-0.8,2-0.8,2s-1.4,0.8-2-0.6C77.6,60.2,77.4,58.1,77.8,57.3z"/>
		<linearGradient id="SVGID_56_" gradientUnits="userSpaceOnUse" x1="84.1705" y1="63.594" x2="84.1705" y2="59.9672">
			<stop  offset="0" style="stop-color:#BBBDBF"/>
			<stop  offset="1" style="stop-color:#F1F1F2"/>
		</linearGradient>
		<path class="st55" d="M86.7,60.2c-0.8-0.5-2.9-0.3-4.3,0.4c-1.3,0.7-0.6,2-0.6,2s0.6,1.4,2,0.8S86.6,61.2,86.7,60.2z"/>
	</g>
	<g>
		<linearGradient id="SVGID_57_" gradientUnits="userSpaceOnUse" x1="80.4762" y1="57.6868" x2="80.4762" y2="52.9006">
			<stop  offset="0" style="stop-color:#BBBDBF"/>
			<stop  offset="1" style="stop-color:#F1F1F2"/>
		</linearGradient>
		<path class="st56" d="M78.6,52.9c1,0,2.7,1.1,3.6,2.4c0.9,1.2-0.5,2.1-0.5,2.1s-1.2,1-2.1-0.2C78.8,55.9,78.3,53.8,78.6,52.9z"/>
		<linearGradient id="SVGID_58_" gradientUnits="userSpaceOnUse" x1="85.4071" y1="58.3516" x2="85.4071" y2="54.3566">
			<stop  offset="0" style="stop-color:#BBBDBF"/>
			<stop  offset="1" style="stop-color:#F1F1F2"/>
		</linearGradient>
		<path class="st57" d="M87.8,54.5c-0.9-0.3-3,0.2-4.2,1c-1.2,0.9-0.2,2.1-0.2,2.1s0.8,1.3,2.1,0.5C86.7,57.2,87.8,55.4,87.8,54.5z"
			/>
	</g>
	<g>
		<linearGradient id="SVGID_59_" gradientUnits="userSpaceOnUse" x1="80.7979" y1="52.8978" x2="80.7979" y2="48.4631">
			<stop  offset="0" style="stop-color:#BBBDBF"/>
			<stop  offset="1" style="stop-color:#F1F1F2"/>
		</linearGradient>
		<path class="st58" d="M78.6,48.5c0.9-0.2,2.9,0.7,3.9,1.8c1,1.1-0.1,2.1-0.1,2.1s-1.1,1.2-2.1,0.1C79.3,51.4,78.5,49.4,78.6,48.5z
			"/>
		<linearGradient id="SVGID_60_" gradientUnits="userSpaceOnUse" x1="85.7864" y1="52.9429" x2="85.7864" y2="48.5624">
			<stop  offset="0" style="stop-color:#BBBDBF"/>
			<stop  offset="1" style="stop-color:#F1F1F2"/>
		</linearGradient>
		<path class="st59" d="M88,48.6c-0.9-0.2-2.9,0.6-4,1.7s0.1,2.1,0.1,2.1s1,1.2,2.1,0.1S88.1,49.5,88,48.6z"/>
	</g>
	<g>
		<linearGradient id="SVGID_61_" gradientUnits="userSpaceOnUse" x1="80.3692" y1="48.0755" x2="80.3692" y2="44.0245">
			<stop  offset="0" style="stop-color:#BBBDBF"/>
			<stop  offset="1" style="stop-color:#F1F1F2"/>
		</linearGradient>
		<path class="st60" d="M78,44.1c0.9-0.3,2.9,0.2,4.1,1.1c1.2,0.9,0.2,2.1,0.2,2.1s-0.9,1.3-2.1,0.4C79.1,46.9,78,45.1,78,44.1z"/>
		<linearGradient id="SVGID_62_" gradientUnits="userSpaceOnUse" x1="85.3145" y1="47.4995" x2="85.3145" y2="42.7612">
			<stop  offset="0" style="stop-color:#BBBDBF"/>
			<stop  offset="1" style="stop-color:#F1F1F2"/>
		</linearGradient>
		<path class="st61" d="M87.3,42.8c-1,0-2.8,1.1-3.7,2.3c-0.9,1.2,0.4,2.1,0.4,2.1s1.2,1,2.1-0.2S87.6,43.7,87.3,42.8z"/>
	</g>
	<g>
		<linearGradient id="SVGID_63_" gradientUnits="userSpaceOnUse" x1="79.2149" y1="43.3362" x2="79.2149" y2="39.6597">
			<stop  offset="0" style="stop-color:#BBBDBF"/>
			<stop  offset="1" style="stop-color:#F1F1F2"/>
		</linearGradient>
		<path class="st62" d="M76.7,39.9c0.8-0.4,2.9-0.2,4.3,0.5s0.5,2.1,0.5,2.1s-0.7,1.4-2,0.7C78.2,42.4,76.8,40.8,76.7,39.9z"/>
		<linearGradient id="SVGID_64_" gradientUnits="userSpaceOnUse" x1="84.0193" y1="42.1561" x2="84.0193" y2="37.1198">
			<stop  offset="0" style="stop-color:#BBBDBF"/>
			<stop  offset="1" style="stop-color:#F1F1F2"/>
		</linearGradient>
		<path class="st63" d="M85.6,37.1c-0.9,0.1-2.6,1.5-3.3,2.8c-0.7,1.3,0.7,2,0.7,2s1.4,0.8,2.1-0.5S86.1,38,85.6,37.1z"/>
	</g>
	<g>
		<linearGradient id="SVGID_65_" gradientUnits="userSpaceOnUse" x1="77.3768" y1="38.7961" x2="77.3768" y2="35.4213">
			<stop  offset="0" style="stop-color:#BBBDBF"/>
			<stop  offset="1" style="stop-color:#F1F1F2"/>
		</linearGradient>
		<path class="st64" d="M74.8,35.9c0.8-0.6,2.9-0.7,4.3-0.2c1.4,0.5,0.8,1.9,0.8,1.9s-0.4,1.5-1.8,1C76.6,38.2,75,36.8,74.8,35.9z"
			/>
		<linearGradient id="SVGID_66_" gradientUnits="userSpaceOnUse" x1="81.9585" y1="37.0467" x2="81.9585" y2="31.7985">
			<stop  offset="0" style="stop-color:#BBBDBF"/>
			<stop  offset="1" style="stop-color:#F1F1F2"/>
		</linearGradient>
		<path class="st65" d="M83.1,31.8c-0.9,0.3-2.3,1.9-2.8,3.3c-0.5,1.4,1,1.8,1,1.8s1.5,0.6,1.9-0.8C83.8,34.7,83.7,32.6,83.1,31.8z"
			/>
	</g>
	<g>
		<linearGradient id="SVGID_67_" gradientUnits="userSpaceOnUse" x1="74.9036" y1="34.5688" x2="74.9036" y2="31.3695">
			<stop  offset="0" style="stop-color:#BBBDBF"/>
			<stop  offset="1" style="stop-color:#F1F1F2"/>
		</linearGradient>
		<path class="st66" d="M72.2,32.3c0.7-0.7,2.7-1.1,4.2-0.9c1.5,0.3,1.1,1.8,1.1,1.8s-0.2,1.6-1.7,1.3
			C74.4,34.3,72.6,33.2,72.2,32.3z"/>
		<linearGradient id="SVGID_68_" gradientUnits="userSpaceOnUse" x1="79.2018" y1="32.3025" x2="79.2018" y2="26.9274">
			<stop  offset="0" style="stop-color:#BBBDBF"/>
			<stop  offset="1" style="stop-color:#F1F1F2"/>
		</linearGradient>
		<path class="st67" d="M79.9,26.9c-0.9,0.4-2,2.2-2.2,3.7c-0.3,1.5,1.3,1.7,1.3,1.7s1.5,0.3,1.8-1.1C81,29.7,80.5,27.6,79.9,26.9z"
			/>
	</g>
	<g>
		<linearGradient id="SVGID_69_" gradientUnits="userSpaceOnUse" x1="71.8588" y1="30.7633" x2="71.8588" y2="27.6202">
			<stop  offset="0" style="stop-color:#BBBDBF"/>
			<stop  offset="1" style="stop-color:#F1F1F2"/>
		</linearGradient>
		<path class="st68" d="M69.1,29.1c0.6-0.8,2.5-1.5,4-1.5c1.5,0,1.4,1.6,1.4,1.6s0.1,1.6-1.4,1.5C71.6,30.7,69.7,29.9,69.1,29.1z"/>
		<linearGradient id="SVGID_70_" gradientUnits="userSpaceOnUse" x1="75.804" y1="28.0456" x2="75.804" y2="22.6247">
			<stop  offset="0" style="stop-color:#BBBDBF"/>
			<stop  offset="1" style="stop-color:#F1F1F2"/>
		</linearGradient>
		<path class="st69" d="M75.9,22.6c-0.8,0.5-1.6,2.5-1.6,4c0,1.5,1.5,1.4,1.5,1.4s1.6,0.1,1.6-1.4C77.4,25.2,76.6,23.2,75.9,22.6z"
			/>
	</g>
	<g>
		<linearGradient id="SVGID_71_" gradientUnits="userSpaceOnUse" x1="68.32" y1="27.5081" x2="68.32" y2="24.33">
			<stop  offset="0" style="stop-color:#BBBDBF"/>
			<stop  offset="1" style="stop-color:#F1F1F2"/>
		</linearGradient>
		<path class="st70" d="M65.6,26.5c0.4-0.9,2.3-1.9,3.7-2.1c1.5-0.2,1.6,1.4,1.6,1.4s0.3,1.5-1.2,1.8C68.3,27.7,66.3,27.2,65.6,26.5
			z"/>
		<linearGradient id="SVGID_72_" gradientUnits="userSpaceOnUse" x1="71.7968" y1="24.3867" x2="71.7968" y2="18.9949">
			<stop  offset="0" style="stop-color:#BBBDBF"/>
			<stop  offset="1" style="stop-color:#F1F1F2"/>
		</linearGradient>
		<path class="st71" d="M71.3,19c-0.7,0.6-1.2,2.7-1,4.2c0.2,1.5,1.8,1.2,1.8,1.2s1.6-0.1,1.4-1.6C73.2,21.3,72.1,19.4,71.3,19z"/>
	</g>
	<g>
		<linearGradient id="SVGID_73_" gradientUnits="userSpaceOnUse" x1="64.37" y1="24.9551" x2="64.37" y2="21.6299">
			<stop  offset="0" style="stop-color:#BBBDBF"/>
			<stop  offset="1" style="stop-color:#F1F1F2"/>
		</linearGradient>
		<path class="st72" d="M61.7,24.4c0.3-0.9,1.9-2.2,3.4-2.7c1.4-0.4,1.8,1.1,1.8,1.1s0.5,1.5-0.9,1.9C64.6,25.1,62.5,25,61.7,24.4z"
			/>
		<linearGradient id="SVGID_74_" gradientUnits="userSpaceOnUse" x1="67.2154" y1="21.4087" x2="67.2154" y2="16.1259">
			<stop  offset="0" style="stop-color:#BBBDBF"/>
			<stop  offset="1" style="stop-color:#F1F1F2"/>
		</linearGradient>
		<path class="st73" d="M66.1,16.1c-0.6,0.7-0.8,2.9-0.3,4.3c0.4,1.4,1.9,0.9,1.9,0.9s1.5-0.4,1.1-1.8C68.4,18.1,67,16.4,66.1,16.1z
			"/>
	</g>
	<g>
		<linearGradient id="SVGID_75_" gradientUnits="userSpaceOnUse" x1="60.1015" y1="23.1956" x2="60.1015" y2="19.5932">
			<stop  offset="0" style="stop-color:#BBBDBF"/>
			<stop  offset="1" style="stop-color:#F1F1F2"/>
		</linearGradient>
		<path class="st74" d="M57.6,22.9c0.1-0.9,1.6-2.5,2.9-3.2s2,0.8,2,0.8s0.8,1.4-0.6,2C60.5,23.2,58.4,23.4,57.6,22.9z"/>
		<linearGradient id="SVGID_76_" gradientUnits="userSpaceOnUse" x1="62.1524" y1="19.1772" x2="62.1524" y2="14.0875">
			<stop  offset="0" style="stop-color:#BBBDBF"/>
			<stop  offset="1" style="stop-color:#F1F1F2"/>
		</linearGradient>
		<path class="st75" d="M60.6,14.1c-0.5,0.8-0.3,2.9,0.3,4.3c0.7,1.3,2,0.6,2,0.6s1.4-0.6,0.8-2S61.6,14.2,60.6,14.1z"/>
	</g>
	<g>
		<linearGradient id="SVGID_77_" gradientUnits="userSpaceOnUse" x1="55.6143" y1="22.2405" x2="55.6143" y2="18.2734">
			<stop  offset="0" style="stop-color:#BBBDBF"/>
			<stop  offset="1" style="stop-color:#F1F1F2"/>
		</linearGradient>
		<path class="st76" d="M53.2,22.1c0-1,1.2-2.7,2.4-3.6c1.2-0.9,2.1,0.5,2.1,0.5s1,1.2-0.3,2.1C56.2,22,54.1,22.5,53.2,22.1z"/>
		<linearGradient id="SVGID_78_" gradientUnits="userSpaceOnUse" x1="56.7446" y1="17.7388" x2="56.7446" y2="12.9291">
			<stop  offset="0" style="stop-color:#BBBDBF"/>
			<stop  offset="1" style="stop-color:#F1F1F2"/>
		</linearGradient>
		<path class="st77" d="M54.9,12.9c-0.3,0.9,0.1,3,1,4.2c0.9,1.2,2.1,0.3,2.1,0.3s1.3-0.8,0.5-2.1C57.6,14.1,55.8,12.9,54.9,12.9z"
			/>
	</g>
</g>
<linearGradient id="SVGID_79_" gradientUnits="userSpaceOnUse" x1="50.3173" y1="71.8774" x2="50.3173" y2="23.9979">
	<stop  offset="0" style="stop-color:#BBBDBF"/>
	<stop  offset="1" style="stop-color:#F1F1F2"/>
</linearGradient>
<path class="st78" d="M59.2,68.9h-2v-0.2v-0.2c0-0.5-0.4-0.9-0.9-0.9h-1.6v-20l4.2,3l-3.2-10.1l8.5-6.3l-10.6-0.1L50.3,24L47,34.1
	l-10.6,0.1l8.5,6.3l-3.2,10.1l4.2-3v20h-1.6c-0.5,0-0.9,0.4-0.9,0.9v0.2v0.2h-2c-0.7,0-1.3,0.6-1.3,1.3v0.4v0v1.3h1.3h17.8h1.3v-1.3
	v0v-0.4C60.6,69.5,60,68.9,59.2,68.9z M50.3,40L48,41.6l0.8-2.7l-2.3-1.7l2.8,0l0.9-2.7l0.9,2.7l2.8,0l-2.3,1.7l0.8,2.7L50.3,40z
	 M54.1,47.1v20.4h-0.8v-21v-1v-0.8l0.8,0.6l0.7,0.5l1.8,1.3l-2.3-7.2l6.1-4.5l-7.5-0.1l-2.5-7.1l-2.3,7.1l-7.5,0.1l6.1,4.5l-2.3,7.2
	l1.6-1.1l0.7-0.5l0.8-0.6v0.7v0.9v21h-0.8V47.1v-0.9l-0.7,0.5l-2.7,2l2.7-8.5l-7.2-5.3l8.9-0.1l2.7-8.4l2.9,8.4l8.9,0.1l-7.2,5.3
	l2.7,8.5l-2.9-2.1l-0.7-0.5V47.1z"/>
</svg>
